<?xml version="1.0" encoding="UTF-8" standalone="no"?>
<!-- Created with Inkscape (http://www.inkscape.org/) -->

<svg
   width="210mm"
   height="297mm"
   viewBox="0 0 210 297"
   version="1.1"
   id="svg1"
   xml:space="preserve"
   xmlns="http://www.w3.org/2000/svg"
   xmlns:svg="http://www.w3.org/2000/svg"><defs
     id="defs1" /><g
     id="layer1"
     style="display:inline"><path
       style="display:inline;fill:#363636"
       d="M 179.56911,110.61314 V 39.764362 h -72.4277 -72.427701 v 70.848778 70.84878 h 72.427701 72.4277 z m -16.15352,69.59711 c -0.71254,-0.0631 -2.13356,-0.15681 -3.15783,-0.20821 -1.02427,-0.0514 -1.89693,-0.12655 -1.93924,-0.16698 -0.0423,-0.0404 -0.17278,-0.0735 -0.28995,-0.0735 -0.3617,0 -0.42536,-0.24879 -0.41835,-1.6349 0.013,-2.56754 0.0855,-5.50092 0.17169,-6.94793 0.10668,-1.79068 0.10594,-1.7374 0.0406,-2.93652 -0.0331,-0.6074 -0.0219,-0.98896 0.0309,-1.05261 0.0551,-0.0665 0.0593,-0.46481 0.0124,-1.19295 -0.089,-1.38194 -0.008,-4.00767 0.13161,-4.27717 0.0612,-0.11804 0.0766,-0.26497 0.0385,-0.36801 -0.0405,-0.10953 -0.007,-0.33269 0.0937,-0.61737 0.13366,-0.37923 0.14924,-0.57108 0.10433,-1.28421 -0.0501,-0.79483 -0.0438,-0.84466 0.11995,-0.95938 0.14903,-0.10438 0.16998,-0.18942 0.15256,-0.61908 -0.0111,-0.27395 0.0398,-1.04463 0.11308,-1.71264 0.0733,-0.668 0.1745,-1.72466 0.22488,-2.34813 0.0504,-0.62347 0.12748,-1.33398 0.17134,-1.57891 0.0749,-0.41858 0.41351,-1.05261 0.56207,-1.05261 0.0769,0 1.02756,0.81883 2.24157,1.93074 0.84509,0.77401 2.05492,2.115 2.49917,2.77009 0.13419,0.19789 0.30231,0.52376 0.3736,0.72416 0.71871,2.02035 1.04164,3.04149 1.07746,3.40703 0.0234,0.23932 0.0912,0.49066 0.15053,0.55854 0.0593,0.0679 0.13293,0.20559 0.16354,0.30603 0.0306,0.10044 0.1405,0.28346 0.2442,0.4067 0.1037,0.12324 0.31564,0.55117 0.47098,0.95096 0.15534,0.39979 0.5086,1.21878 0.78501,1.81998 0.68699,1.4942 0.85936,1.9325 1.13474,2.88544 0.4519,1.56375 2.6116,6.69757 3.79334,9.01716 0.41973,0.82387 1.03157,2.02408 1.35963,2.66714 0.32806,0.64306 0.59648,1.21693 0.59648,1.27528 0,0.0861 -0.81103,0.10608 -4.31292,0.10608 -4.11964,0 -4.32556,0.007 -4.59505,0.15729 -0.34224,0.19081 -0.49809,0.19433 -2.14444,0.0485 z m -32.8345,-0.31851 c -1.19765,-0.29814 -1.46708,-0.4109 -2.15292,-0.90099 -0.77478,-0.55365 -1.0613,-0.81652 -1.21887,-1.11827 -0.11014,-0.21093 -0.10473,-0.25926 0.068,-0.60668 0.18243,-0.36702 0.45371,-0.60867 1.21458,-1.08191 0.4235,-0.26341 1.68717,-1.2682 2.43223,-1.93397 0.396,-0.35384 0.5667,-0.56967 0.62664,-0.79226 0.0838,-0.3112 0.3142,-0.5822 2.39231,-2.81386 0.53468,-0.5742 1.10761,-1.2043 1.27317,-1.40023 0.20437,-0.24186 0.31362,-0.31985 0.3403,-0.24291 0.43272,1.24813 0.75403,2.87203 0.87153,4.40474 0.1363,1.77807 0.12364,4.9616 -0.0215,5.40136 -0.0824,0.24974 -0.0846,0.35475 -0.01,0.47471 0.0847,0.13566 0.0634,0.16772 -0.17894,0.26898 -0.15132,0.0632 -0.30618,0.16773 -0.34413,0.23223 -0.10077,0.1713 -1.18591,0.27665 -2.98391,0.28968 -1.37035,0.01 -1.6226,-0.01 -2.30879,-0.18062 z m 22.47927,-0.0695 c -0.019,-0.1002 -0.16672,-1.11131 -0.32815,-2.24691 -0.16143,-1.13561 -0.38209,-2.65974 -0.49035,-3.38697 -0.30112,-2.02274 -0.35659,-3.167 -0.44447,-9.16769 -0.0789,-5.38472 -0.11441,-6.24416 -0.36819,-8.9024 -0.15872,-1.66249 -0.25943,-5.36439 -0.36236,-13.31957 -0.10987,-8.49168 -0.22144,-11.82295 -0.53015,-15.82964 -0.81306,-10.55271 -2.90328,-19.56159 -7.20707,-31.06267 -1.76502,-4.716675 -2.59344,-6.577945 -4.24958,-9.547777 -0.5948,-1.06662 -1.22278,-2.259444 -1.39551,-2.650722 -0.27519,-0.623381 -0.30596,-0.753634 -0.24866,-1.05261 0.0898,-0.468272 0.0574,-0.626418 -0.17874,-0.872862 -0.17682,-0.184564 -0.19178,-0.241512 -0.11584,-0.441225 0.0788,-0.207379 0.0633,-0.459168 -0.054,-0.873954 -0.0237,-0.08379 -0.29765,-0.268098 -0.64021,-0.430695 -0.91332,-0.433519 -1.05576,-0.631734 -3.04734,-4.240549 -1.58054,-2.864014 -2.49089,-4.260862 -5.43525,-8.339913 -3.84611,-5.32832 -11.28116,-14.672013 -12.85798,-16.158732 -0.2392,-0.225534 -0.83571,-0.678027 -1.32557,-1.005542 -0.97399,-0.651179 -1.9245,-1.356867 -2.50902,-1.862771 -0.2064,-0.178636 -0.42912,-0.324792 -0.49494,-0.324792 -0.0658,0 -0.27185,0.14196 -0.45786,0.315467 l -0.3382,0.315468 0.5619,0.63593 c 0.30904,0.349762 1.38414,1.47397 2.38911,2.498241 2.31605,2.36053 4.14108,4.445162 6.80804,7.776437 1.81632,2.268755 6.60784,8.665693 6.99339,9.336561 0.0519,0.09037 0.0296,0.09175 -0.12915,0.008 -0.356,-0.187905 -2.28249,-1.419289 -4.76676,-3.046848 -4.02202,-2.635003 -4.46736,-2.901965 -8.62331,-5.169235 -4.24413,-2.31538 -6.32355,-3.60686 -8.097,-5.028863 -1.19243,-0.956127 -3.03724,-2.77083 -4.96924,-4.888149 -1.728461,-1.894252 -2.468181,-2.682424 -4.141581,-4.412867 -0.60292,-0.623469 -1.31226,-1.406854 -1.57631,-1.740856 -0.26404,-0.334001 -0.53623,-0.652166 -0.60486,-0.707033 -0.15924,-0.127302 -0.80019,-0.04859 -0.99521,0.122212 -0.32231,0.282277 -0.0739,0.946753 0.65425,1.750268 0.26982,0.297734 0.69206,0.828867 0.93831,1.180296 0.24626,0.351429 0.72831,0.978516 1.07124,1.393528 0.34293,0.415011 7.696081,7.841468 16.340331,16.503237 8.64425,8.661769 16.75429,16.80533 18.0223,18.096802 4.18035,4.257686 8.54801,9.086962 10.28886,11.37629 0.63074,0.829457 1.61085,2.434422 1.61085,2.637817 0,0.15362 -0.78074,-0.688697 -0.85019,-0.917237 -0.15574,-0.512563 -1.95437,-2.28737 -2.31807,-2.28737 -0.0925,0 -0.35103,-0.164374 -0.57448,-0.365275 -0.44783,-0.402641 -0.73065,-0.514824 -0.91409,-0.362583 -0.21396,0.177575 -0.13051,0.448202 0.28445,0.922396 0.22267,0.254455 0.40485,0.516631 0.40485,0.582614 0,0.426949 0.91255,1.527002 1.65066,1.989813 0.22774,0.142799 0.42563,0.267321 0.43976,0.276714 0.0141,0.0094 -0.0685,0.202885 -0.18355,0.429981 l -0.20923,0.412901 h 0.43562 c 0.4155,0 0.45214,0.01776 0.79333,0.384608 0.38018,0.408756 1.7221,2.141709 2.17368,2.807089 0.28163,0.41497 0.90898,1.757 0.84925,1.81673 -0.053,0.053 -0.47478,-0.29042 -1.57714,-1.28437 -1.16762,-1.05279 -1.96317,-1.665226 -4.0485,-3.116641 -3.94858,-2.748256 -6.41339,-4.58487 -10.8095,-8.054544 -1.55868,-1.230197 -3.67195,-2.890795 -4.69616,-3.690217 -2.44609,-1.909218 -4.37706,-3.503391 -6.55868,-5.414716 -9.67492,-8.47623 -21.434161,-20.666395 -26.562721,-27.536121 -1.02322,-1.370601 -2.42086,-3.449686 -3.21145,-4.777232 -1.86585,-3.133096 -4.27372,-7.832969 -4.27372,-8.341762 0,-0.104675 1.02346,-0.120231 8.19821,-0.124612 7.39123,-0.0045 8.63657,-0.03063 9.61817,-0.201685 0.1575,-0.02745 0.565881,0.0078 0.907501,0.07839 0.45964,0.09494 1.09614,0.128298 2.44816,0.128298 h 1.82704 l 0.64933,0.326474 c 2.87297,1.444503 10.13522,6.619245 14.36701,10.237264 4.82495,4.125146 9.78483,9.46393 13.6557,14.698911 2.97156,4.018753 4.29416,6.120141 8.91836,14.169756 7.68375,13.375544 11.27937,18.963192 16.34587,25.401737 4.48278,5.69675 5.92341,7.01516 9.78355,8.95356 l 1.74086,0.87418 -0.56679,-0.0515 c -3.47554,-0.31549 -6.74419,-1.544 -9.95932,-3.74317 -1.89591,-1.29681 -3.53416,-2.70744 -5.62786,-4.84592 -2.16586,-2.21218 -3.40468,-3.75195 -5.4643,-6.791764 -1.45828,-2.152279 -1.89312,-2.705826 -2.90904,-3.70313 l -0.88955,-0.873248 -0.34799,0.341524 c -0.45918,0.450648 -0.45146,0.62773 0.0676,1.55175 1.32747,2.363087 3.18463,4.848038 6.18073,8.270038 1.61698,1.84684 2.20714,2.44838 3.44395,3.51044 2.04057,1.75222 2.3687,2.12775 2.625,3.00417 0.18337,0.62703 0.42795,2.42034 0.53054,3.89004 0.12671,1.81522 0.28503,3.17176 0.73233,6.27518 0.53043,3.68019 0.5614,4.01277 0.61821,6.63954 0.0551,2.54643 -0.0348,4.73276 -0.33803,8.21846 -0.25522,2.93432 -0.64082,7.6405 -0.80607,9.83786 -0.17461,2.32182 -0.3782,4.0761 -0.8927,7.69215 -0.80439,5.65346 -0.94679,7.05427 -1.08648,10.68805 -0.14272,3.71237 -0.16671,5.16483 -0.16748,10.14149 l -7.6e-4,4.87845 h -1.2535 c -1.23567,0 -1.25398,-0.003 -1.28813,-0.18219 z M 106.29322,43.850951 c 0.24278,-0.29253 -0.31357,-0.769314 -0.61032,-0.523035 -0.17425,0.144614 -0.14784,0.375578 0.0596,0.520842 0.2279,0.159626 0.41948,0.160389 0.55077,0.0022 z m -0.48781,-0.202568 c 0,-0.09047 0.0562,-0.186058 0.12494,-0.212428 0.16918,-0.06492 0.22444,0.0071 0.16039,0.208867 -0.0686,0.216206 -0.28533,0.21891 -0.28533,0.0036 z m 42.1593,136.234697 c -0.14436,-0.039 -0.3003,-0.0233 -0.42345,0.0427 -0.15182,0.0813 -0.50434,0.0897 -1.59332,0.0382 -0.7691,-0.0364 -1.90848,-0.0745 -2.53195,-0.0847 -0.9212,-0.015 -1.23851,-0.0527 -1.69363,-0.20091 -0.48016,-0.15639 -0.59848,-0.16851 -0.82947,-0.085 -0.14818,0.0536 -0.30564,0.075 -0.3499,0.0477 -0.28777,-0.17785 -0.68009,-1.34181 -0.64848,-1.92393 0.004,-0.0779 0.008,-0.29655 0.009,-0.48582 0.007,-1.43058 -0.008,-1.50896 -0.36684,-1.86753 -0.11029,-0.11029 -0.23004,-0.37309 -0.28341,-0.62194 -0.0508,-0.23703 -0.16444,-0.59376 -0.25246,-0.79274 -0.18187,-0.41115 -0.20681,-1.09763 -0.08,-2.20098 0.0515,-0.44763 0.0512,-0.71331 -6.1e-4,-0.76517 -0.17413,-0.17413 -0.0439,-4.65249 0.16955,-5.82949 0.049,-0.27047 0.0892,-0.74538 0.0892,-1.05535 0,-0.42614 0.0366,-0.61013 0.15008,-0.75439 0.0825,-0.10493 0.19007,-0.39809 0.23895,-0.65145 0.15914,-0.82484 0.15921,-0.82502 0.32955,-0.82502 0.0897,0 0.29847,-0.0582 0.46404,-0.12941 0.16557,-0.0712 0.61848,-0.21584 1.00646,-0.32149 0.38798,-0.10565 1.49929,-0.54353 2.46958,-0.97308 0.97029,-0.42954 1.84681,-0.81254 1.94782,-0.85112 0.101,-0.0386 0.41737,-0.23017 0.70302,-0.42576 0.37928,-0.2597 0.57461,-0.34507 0.72413,-0.31649 0.11261,0.0215 0.45211,-0.0356 0.75443,-0.12695 0.54148,-0.1636 0.55629,-0.16383 0.99154,-0.0156 0.70824,0.2412 0.6781,0.0126 0.71567,5.42707 0.0178,2.56068 0.006,7.18148 -0.0259,10.26845 l -0.0582,5.61266 -0.69867,-0.0353 c -0.38427,-0.0195 -0.8015,-0.0631 -0.92718,-0.097 z m -64.525201,0.0714 -0.36465,-0.05 0.038,-0.33707 c 0.0234,-0.20735 -0.012,-0.45679 -0.092,-0.64816 -0.25999,-0.62224 -0.14709,-2.34562 0.23126,-3.5301 0.10668,-0.33401 0.25618,-0.90637 0.33221,-1.27193 0.13647,-0.65616 0.36108,-1.15718 0.51877,-1.15718 0.12244,0 0.4572,0.54391 0.69788,1.13391 0.31477,0.77163 0.51667,1.85978 0.51825,2.79314 7.6e-4,0.44534 0.0553,1.13763 0.12111,1.53843 0.18685,1.13727 0.17186,1.29148 -0.1406,1.44551 -0.27647,0.13629 -1.17919,0.17677 -1.86023,0.0834 z m -16.44284,-0.002 c -0.61469,-0.052 -0.61543,-0.0523 -0.73231,-0.34441 -0.0643,-0.16082 -0.17728,-0.6202 -0.25096,-1.02084 -0.2667,-1.45021 -0.69657,-2.99055 -3.16349,-11.33551 -2.90526,-9.82774 -3.26339,-11.21756 -4.3737,-16.97303 -0.33831,-1.75368 -0.7619,-3.80732 -0.9413,-4.56364 -0.21616,-0.91129 -0.31075,-1.47166 -0.28042,-1.66133 0.0353,-0.22091 -0.0749,-0.6369 -0.48313,-1.82319 -0.53991,-1.56898 -0.75305,-2.36308 -0.92324,-3.43978 -0.0528,-0.334 -0.21819,-1.15382 -0.36755,-1.82182 -0.35778,-1.60019 -0.86704,-4.71185 -0.80378,-4.91117 0.0278,-0.0875 -0.007,-0.24425 -0.0782,-0.353 -0.13839,-0.21121 -0.16996,-0.44422 -0.0602,-0.44422 0.10546,0 1.19172,2.30895 1.43801,3.05662 0.12103,0.3674 0.25071,0.668 0.28819,0.668 0.0375,0 0.0681,0.10716 0.0681,0.23813 0,0.13097 0.0373,0.26116 0.0828,0.28929 0.18914,0.1169 1.09465,2.17006 1.01436,2.29998 -0.0215,0.0348 0.0524,0.18721 0.16426,0.33859 0.18365,0.24849 0.42494,0.93238 0.80875,2.29221 0.10744,0.38065 0.22215,0.56493 0.56081,0.9009 0.37303,0.37005 0.47345,0.54645 0.81086,1.42426 0.21181,0.55104 0.74845,1.93102 1.19255,3.06662 1.57594,4.02992 1.93096,5.06821 4.06982,11.9026 2.70103,8.63066 5.5432,19.86293 5.54616,21.9184 3.6e-4,0.25465 -0.007,0.25941 -0.42472,0.28866 -0.79507,0.0556 -2.54428,0.0599 -3.16168,0.008 z m -4.33037,-1.50666 c -0.0534,-0.85727 -0.15091,-1.88102 -0.21678,-2.27501 -0.0659,-0.39398 -0.19532,-1.50461 -0.28766,-2.46806 -0.0924,-0.96345 -0.23729,-2.18965 -0.3221,-2.72489 -0.0848,-0.53524 -0.17381,-1.19178 -0.19779,-1.45898 l -0.0436,-0.48582 0.15821,0.56679 c 0.087,0.31173 0.19995,0.85828 0.25096,1.21455 0.051,0.35627 0.18082,0.8885 0.28848,1.18274 0.22287,0.60916 0.65992,2.32274 0.76187,2.98722 0.0376,0.24493 0.2,0.82791 0.36091,1.29552 0.35602,1.03455 0.97265,3.02116 1.04798,3.37629 l 0.0549,0.25895 -0.47109,0.0294 c -0.2591,0.0162 -0.65474,0.0363 -0.8792,0.0447 l -0.4081,0.0153 z m -5.10648,-0.12145 c -0.1753,-2.96756 -0.57383,-6.34047 -1.14566,-9.69616 -0.66677,-3.91282 -1.52491,-7.8024 -3.57278,-16.19401 -0.44558,-1.82587 -1.13709,-4.68614 -1.53669,-6.35615 -0.3996,-1.67 -0.98442,-3.92907 -1.2996,-5.02014 -1.2335,-4.27002 -1.62716,-5.92173 -1.72717,-7.24682 -0.0269,-0.35626 -0.069,-0.82083 -0.0936,-1.03236 l -0.0447,-0.38461 h -0.76161 -0.76162 l 0.002,0.46558 c 0.003,0.75761 0.13725,1.48607 0.65447,3.5411 0.26919,1.06954 0.79422,3.29277 1.16673,4.94051 0.37252,1.64774 1.0049,4.36226 1.4053,6.03226 2.79915,11.67491 4.57158,20.99794 5.51686,29.01885 0.13587,1.15296 0.22943,2.11392 0.20789,2.13546 -0.071,0.071 -1.31804,-2.5872 -1.85222,-3.94837 -0.84903,-2.16345 -3.56359,-9.70326 -4.38866,-12.18968 -1.82749,-5.50731 -3.49114,-11.53509 -4.73665,-17.16196 -0.55301,-2.49832 -0.83511,-3.61105 -1.22142,-4.81772 -0.17821,-0.55667 -0.36531,-1.27629 -0.41579,-1.59916 l -0.0918,-0.58703 h -0.42701 c -0.89409,0 -0.9693,0.14848 -0.8979,1.7726 0.0518,1.17723 0.12018,1.52598 0.82772,4.21918 0.28663,1.09107 0.81725,3.29548 1.17914,4.89869 0.36189,1.60321 0.93266,3.9898 1.26838,5.30354 0.33571,1.31374 0.64611,2.60723 0.68978,2.87443 0.0437,0.2672 0.16109,0.68622 0.26095,0.93116 0.31331,0.76847 1.66568,5.07434 1.75756,5.59599 0.0546,0.30967 0.15256,0.56243 0.25936,0.66889 0.23509,0.23432 0.49504,0.73822 0.78114,1.51415 0.1324,0.35909 0.24073,0.67249 0.24073,0.69642 0,0.0239 -0.10571,-0.0696 -0.23491,-0.20794 -0.60557,-0.64827 -1.004,-0.0546 -0.99954,1.48938 0.003,0.98477 0.12234,1.39612 0.9235,3.17904 0.75961,1.69045 1.43147,3.38922 1.84249,4.65862 0.55611,1.71754 1.0741,3.9557 0.94536,4.08475 -0.0335,0.0336 -0.70983,0.0733 -1.50284,0.0881 l -1.44184,0.0269 -0.0538,-0.6747 c -0.21361,-2.67917 -0.96601,-6.13179 -2.47852,-11.37345 -0.22016,-0.76295 -0.4577,-1.67386 -0.52786,-2.02425 -0.0702,-0.35038 -0.19616,-0.7336 -0.27999,-0.8516 -0.0838,-0.118 -0.17642,-0.31014 -0.20575,-0.42698 -0.0293,-0.11684 -0.12548,-0.26298 -0.21368,-0.32476 -0.11271,-0.0789 -0.21898,-0.36038 -0.35764,-0.94712 -0.10851,-0.45913 -0.2722,-0.96175 -0.36375,-1.11692 -0.0916,-0.15517 -0.19075,-0.42444 -0.22045,-0.59837 l -0.054,-0.31625 -0.43825,0.50386 -0.43824,0.50386 0.14263,0.94231 c 0.18568,1.22667 0.26363,1.5215 0.43564,1.64783 0.14745,0.1083 0.26692,0.54123 0.45329,1.64261 0.13185,0.77924 0.23902,1.19701 0.86861,3.38628 1.09812,3.81845 1.58799,6.18366 1.97182,9.52031 l 0.0503,0.43721 -0.97879,-0.0451 c -0.65633,-0.0302 -1.03791,-0.084 -1.15822,-0.16332 -0.20846,-0.13736 -1.08785,-1.66451 -1.6657,-2.89267 -0.22001,-0.46761 -1.47454,-3.51005 -2.78784,-6.761 -2.52488,-6.2501 -3.43902,-8.46757 -3.87199,-9.39253 l -0.26531,-0.56679 -0.02,-15.82964 c -0.0127,-10.03854 0.008,-15.69634 0.0562,-15.46527 0.29288,1.40112 0.58318,3.59675 0.63464,4.79989 l 0.0581,1.35867 0.24831,0.22679 c 0.20967,0.1915 0.28039,0.36441 0.4544,1.11092 0.24872,1.06706 0.67631,3.2358 1.06033,5.37796 0.15568,0.86841 0.41128,1.98762 0.56801,2.48714 0.433,1.38005 0.51986,1.76816 0.61051,2.72783 0.0459,0.48568 0.0961,0.89573 0.11157,0.91122 0.0425,0.0425 1.08676,-1.2242 1.28217,-1.55538 0.22909,-0.38828 0.17339,-0.88892 -0.25666,-2.30677 -0.44063,-1.45279 -0.48302,-1.80533 -0.24721,-2.05633 0.38788,-0.41288 0.262,-1.26032 -0.18721,-1.26032 -0.17971,0 -0.19087,-0.0343 -0.24104,-0.74117 -0.0289,-0.40764 -0.0526,-1.11669 -0.0526,-1.57566 v -0.8345 l -0.34413,-0.0988 c -0.18926,-0.0543 -0.35261,-0.10378 -0.36299,-0.10984 -0.0814,-0.0475 -2.21864,-12.13206 -2.20369,-12.46022 0.002,-0.0497 0.17892,0.40149 0.39255,1.0027 0.21364,0.6012 0.66348,1.76717 0.99965,2.59104 1.2409,3.04113 1.69814,4.5128 1.83104,5.89336 0.0946,0.98253 0.16941,1.07006 0.91467,1.07006 h 0.55424 l -10e-5,-0.54655 c -2.5e-4,-1.38468 -0.37041,-3.63248 -1.00706,-6.11532 -0.19669,-0.76706 -0.55849,-2.17803 -0.80401,-3.1355 -0.91473,-3.56721 -1.67895,-7.98257 -2.31567,-13.37901 -1.07817,-9.13797 -1.20773,-13.527124 -0.84908,-28.765896 0.0639,-2.716544 0.11657,-6.112967 0.11698,-7.547606 7e-4,-2.479232 0.008,-2.612512 0.15455,-2.690755 0.2102,-0.112493 0.31256,-0.94676 0.15628,-1.273693 -0.0904,-0.189109 -0.18231,-0.241016 -0.53208,-0.300469 -0.48784,-0.08292 -0.62643,-0.01115 -0.74477,0.385689 -0.0488,0.163506 -0.0695,-0.99268 -0.0588,-3.269226 l 0.0167,-3.522197 0.30531,-1.012125 c 0.746,-2.473041 1.74606,-4.579474 3.87727,-8.166758 0.35352,-0.595034 0.9906,-1.724566 1.41575,-2.510071 0.96899,-1.790308 1.25433,-2.198657 2.86436,-4.099232 0.71633,-0.845603 1.95327,-2.394155 2.74875,-3.441226 1.70523,-2.24456 2.90658,-3.727293 3.85045,-4.752317 0.6335,-0.687971 0.7161,-0.749752 1.1091,-0.829558 0.23354,-0.04742 0.58858,-0.09048 0.78898,-0.09568 0.75975,-0.01971 10.06009,0.173305 10.11949,0.210013 0.0343,0.02117 0.0859,0.339781 0.11469,0.708033 0.11151,1.424248 0.17376,1.904111 0.26118,2.013504 0.0525,0.0657 0.10866,0.607982 0.13334,1.287572 0.0345,0.950825 0.0994,1.427529 0.3412,2.507079 0.16422,0.733158 0.34819,1.480106 0.40882,1.659886 0.0981,0.29081 0.73432,2.957789 1.179,4.942164 0.36377,1.623373 0.29202,3.238422 -0.25902,5.829842 -0.73252,3.444937 -0.97158,4.709578 -1.20166,6.356912 -0.13989,1.001584 -0.36212,2.590944 -0.49386,3.531911 -0.83434,5.959572 -2.63988,13.637623 -4.74552,20.180377 -0.58183,1.807894 -1.20254,3.03543 -2.66691,5.274219 -1.73141,2.647024 -2.5185,4.061394 -2.90634,5.222568 -0.21749,0.65116 -0.44207,1.80722 -0.49856,2.56641 l -0.0524,0.70409 0.4469,0.0246 0.44691,0.0246 -1.04237,2.21184 c -0.5733,1.2165 -1.04237,2.23999 -1.04237,2.2744 0,0.0344 -0.0848,0.10123 -0.18852,0.14847 -0.16405,0.0747 -0.22349,0.24196 -0.45794,1.28828 -0.14819,0.6613 -0.31584,1.3299 -0.37257,1.48577 l -0.10314,0.2834 -0.005,-0.24291 c -0.003,-0.13361 0.0475,-0.55263 0.11228,-0.93116 0.0648,-0.37854 0.15643,-1.27123 0.20374,-1.98377 0.12022,-1.81069 0.5391,-6.59049 0.73363,-8.371479 1.13143,-10.358516 3.39551,-20.230221 8.82305,-38.469682 1.36232,-4.578144 1.59773,-5.480197 1.82181,-6.981006 0.11251,-0.753579 0.25577,-1.577125 0.31836,-1.830103 0.16356,-0.661185 0.2807,-1.525354 0.232,-1.711582 -0.0962,-0.367711 -0.45885,-0.289829 -1.20139,0.257974 l -0.48878,0.360602 -0.14846,0.802343 c -0.0816,0.441289 -0.31092,1.367109 -0.5095,2.057379 -0.19857,0.690269 -0.57447,2.129512 -0.83532,3.198316 -0.5208,2.133881 -1.03054,3.957146 -2.25319,8.059279 -3.19506,10.719855 -4.43264,15.668569 -6.56391,26.247229 -1.12543,5.586155 -1.28664,6.583199 -1.35799,8.398735 -0.0512,1.303975 -0.0574,1.339535 -0.32262,1.848265 -0.1487,0.28529 -0.2878,0.47038 -0.30911,0.4113 -0.0213,-0.0591 -0.12707,-0.72431 -0.23502,-1.4783 -0.17593,-1.228839 -0.18378,-1.38997 -0.0757,-1.554943 0.11055,-0.168719 0.0905,-0.290551 -0.24119,-1.463057 -0.47049,-1.663318 -0.43382,-1.465733 -0.58303,-3.141323 -0.14604,-1.639823 -0.43022,-4.228263 -0.48448,-4.412867 -0.15884,-0.540312 -0.40438,-4.273499 -0.39677,-6.032267 0.003,-0.578936 0.0475,-1.362321 0.10003,-1.740856 0.0525,-0.378535 0.16792,-1.799559 0.25648,-3.157831 0.21654,-3.321002 0.38358,-5.23642 0.49076,-5.627417 0.0488,-0.178134 0.13791,-1.143702 0.19795,-2.145706 0.10295,-1.718014 0.13468,-1.933887 0.55688,-3.788415 0.26905,-1.181851 0.49948,-2.018365 0.57745,-2.09634 0.27986,-0.279857 0.35975,-0.513259 0.5632,-1.645458 0.25165,-1.40045 0.4795,-2.225835 0.6995,-2.533902 0.0889,-0.124441 0.19673,-0.452369 0.23969,-0.72873 0.043,-0.276361 0.22201,-0.994368 0.39788,-1.59557 0.17587,-0.601203 0.40259,-1.4371 0.50384,-1.85755 0.17577,-0.729945 0.19543,-0.767381 0.43569,-0.829267 0.21488,-0.05535 0.27559,-0.132864 0.41597,-0.531066 0.0904,-0.256439 0.22647,-0.630218 0.30238,-0.830619 0.0923,-0.243654 0.12242,-0.480036 0.091,-0.713517 -0.0434,-0.321878 -0.004,-0.422788 0.49862,-1.29182 0.30013,-0.518467 0.62908,-1.026071 0.73101,-1.128009 0.15563,-0.155649 0.17044,-0.213136 0.0925,-0.358834 -0.0855,-0.15979 -0.13776,-0.169728 -0.66137,-0.12583 -0.70661,0.05924 -0.99621,0.238094 -1.6127,0.995975 -0.57272,0.704087 -0.65146,0.865056 -1.36177,2.783975 -1.88501,5.092371 -2.6913,7.508274 -3.28223,9.834682 -1.5731,6.193069 -2.1388,12.321962 -1.96957,21.338781 0.0935,4.98202 0.26851,7.33815 0.72073,9.703213 0.1306,0.683015 0.23745,1.42582 0.23745,1.650678 0,0.413195 0.23261,2.023199 0.45362,3.13975 0.0661,0.334 0.15555,1.1356 0.19874,1.78134 0.16064,2.4016 0.22506,2.85278 0.6359,4.45335 0.59716,2.32642 0.83913,3.46433 1.38605,6.51809 0.64352,3.59306 0.73992,4.04255 1.78214,8.30889 3.505,14.3479 5.65927,24.43583 7.39856,34.64571 1.06707,6.26387 2.53969,16.15866 2.83792,19.06844 0.12396,1.20946 0.28569,3.53127 0.28624,4.10923 l 2.9e-4,0.30364 h -1.52302 -1.52302 z m -3.86129,1.41697 c -0.20691,-0.15115 -0.37827,-0.3493 -0.40264,-0.46557 -0.0934,-0.44583 -0.39682,-1.2792 -0.61688,-1.69451 -0.12807,-0.24171 -0.23286,-0.53666 -0.23286,-0.65545 0,-0.11879 -0.0711,-0.28036 -0.15808,-0.35905 -0.0877,-0.0794 -0.19916,-0.34616 -0.25041,-0.59958 -0.15411,-0.76192 -0.5289,-2.05627 -0.71898,-2.483 -0.0986,-0.22144 -0.29053,-0.74811 -0.42642,-1.17038 -0.1359,-0.42226 -0.37101,-1.09249 -0.52247,-1.48938 -0.15146,-0.3969 -0.26092,-0.73611 -0.24323,-0.7538 0.0177,-0.0177 0.089,0.10599 0.15835,0.27484 0.0694,0.16885 0.40034,0.93658 0.7354,1.70608 0.33507,0.76949 0.81342,2.02655 1.06301,2.79346 0.75996,2.3351 0.82558,2.49235 1.33997,3.21121 0.41554,0.58073 1.04711,1.72434 1.04711,1.89606 0,0.14523 -0.45428,0.0211 -0.77187,-0.21093 z m -11.93755,-0.0405 0.003,-0.30364 0.11572,0.20243 c 0.15085,0.26388 0.15085,0.40485 0,0.40485 -0.0869,0 -0.12064,-0.0864 -0.11858,-0.30364 z m -3.61508,0.19161 c -0.005,-0.005 -0.0516,-0.86569 -0.10367,-1.91222 -0.17325,-3.48355 -0.79727,-8.51515 -1.35063,-10.89047 -0.0623,-0.2672 -0.11156,-0.52226 -0.10957,-0.56679 0.006,-0.12366 0.6565,1.54007 2.38279,6.08962 1.52634,4.02263 1.57002,4.1543 1.46376,4.41287 -0.0651,0.15834 -0.13325,0.79235 -0.16796,1.56204 -0.0321,0.71254 -0.0727,1.31941 -0.0902,1.34861 -0.0245,0.0408 -1.98403,-0.001 -2.02449,-0.0437 z m -2.29861,-2.85687 c 0,-1.6329 0.0148,-2.95372 0.0328,-2.93517 0.10473,0.10758 0.49955,5.68222 0.41243,5.8232 -0.0275,0.0445 -0.13892,0.0809 -0.24763,0.0809 h -0.19765 z m 80.605681,2.80696 c -0.10208,-0.0439 -0.11704,-0.0696 -0.0405,-0.0696 0.0668,0 0.19432,0.0313 0.28339,0.0696 0.10208,0.0439 0.11704,0.0696 0.0405,0.0696 -0.0668,0 -0.19433,-0.0313 -0.28339,-0.0696 z m -27.822751,-0.10087 c -0.0436,-0.0779 -0.21941,-0.16379 -0.39161,-0.19133 -0.28519,-0.0456 -0.31995,-0.0792 -0.39744,-0.38449 -0.054,-0.21267 -0.0567,-0.3627 -0.008,-0.4119 0.11032,-0.11032 0.0956,-0.29489 -0.0352,-0.44347 -0.0619,-0.0703 -0.22591,-0.47116 -0.36437,-0.89079 -0.19453,-0.58957 -0.25174,-0.90581 -0.25174,-1.39147 0,-0.34567 -0.0381,-0.72866 -0.0846,-0.85108 -0.0607,-0.15957 -0.0579,-0.28713 0.01,-0.4506 0.0861,-0.20785 0.13119,-0.22813 0.50972,-0.22926 0.2284,-6.9e-4 0.4691,-0.0353 0.53488,-0.0769 0.0819,-0.0518 0.16503,-0.0345 0.26352,0.0546 0.10179,0.0921 0.4087,0.15082 1.04848,0.20054 1.21312,0.0943 3.06319,0.46662 4.50872,0.90738 0.65177,0.19873 1.94467,0.56564 2.8731,0.81536 0.92844,0.24972 2.44055,0.68638 3.360261,0.97038 0.9197,0.28399 2.04607,0.60841 2.50304,0.72094 0.45696,0.11253 1.13104,0.34876 1.49794,0.52495 0.36691,0.1762 1.18632,0.51229 1.82092,0.74686 0.63461,0.23458 1.15383,0.45767 1.15383,0.49576 0,0.0381 -4.15633,0.0595 -9.236291,0.0476 -8.69066,-0.0204 -9.24097,-0.0301 -9.31539,-0.16306 z m -11.89306,-0.28808 c 0,-0.55031 0.32147,-1.14319 0.97792,-1.80356 0.40608,-0.4085 0.62359,-0.56497 0.84249,-0.60603 0.41861,-0.0785 0.93021,0.007 1.10884,0.18583 0.14365,0.14366 0.14561,0.18276 0.0338,0.67412 -0.0653,0.28689 -0.16151,0.82112 -0.21382,1.18719 l -0.0951,0.66559 -0.98292,0.0254 c -0.54061,0.014 -1.13778,0.0333 -1.32704,0.0429 l -0.34413,0.0175 z m -4.42061,-1.41264 c -0.0782,-0.2338 -0.13438,-0.54773 -0.1248,-0.69762 0.01,-0.14989 -0.0368,-0.35528 -0.10307,-0.45643 -0.0729,-0.11126 -0.15278,-0.55567 -0.20224,-1.12519 -0.0534,-0.61513 -0.13832,-1.06919 -0.245,-1.31035 -0.0898,-0.20297 -0.21681,-0.64887 -0.28228,-0.99089 -0.0655,-0.34201 -0.26883,-1.24126 -0.4519,-1.99833 -0.21081,-0.87181 -0.36228,-1.73274 -0.41311,-2.34813 -0.0762,-0.92221 -0.099,-1.00823 -0.44907,-1.6908 -0.41461,-0.80842 -0.83813,-2.32211 -0.83813,-2.99549 0,-0.55689 -0.24534,-1.41311 -0.68556,-2.39262 -0.26634,-0.59261 -0.42414,-1.11442 -0.60211,-1.99105 -0.15421,-0.75961 -0.33049,-1.37315 -0.48888,-1.70156 -0.13623,-0.28248 -0.2477,-0.58469 -0.2477,-0.67158 0,-0.13327 -0.26117,-1.11171 -0.44685,-1.67405 -0.1158,-0.35073 0.80748,1.59485 1.19093,2.50957 0.54251,1.29418 0.78781,1.76853 1.31462,2.54219 0.47101,0.69173 0.77525,1.51459 0.77525,2.09679 0,0.19291 0.0532,0.38285 0.12836,0.45797 0.19236,0.19237 0.54311,1.4001 0.55396,1.90746 0.01,0.46043 0.0684,0.60845 0.5527,1.39809 0.36168,0.58967 0.60391,1.48185 0.71001,2.6151 0.15346,1.63921 0.23736,2.25009 0.32045,2.33318 0.0455,0.0455 0.0834,0.23022 0.0844,0.41058 9.8e-4,0.18036 0.0683,0.4744 0.14964,0.65343 0.0813,0.17902 0.17438,0.59804 0.2068,0.93115 0.0324,0.33311 0.10713,0.8425 0.16604,1.13197 0.14808,0.7276 0.23668,2.49986 0.13785,2.75754 -0.0711,0.18533 -0.47388,0.72417 -0.54134,0.72417 -0.0147,0 -0.0908,-0.19129 -0.169,-0.4251 z m 44.322771,0.21733 c -0.4438,-0.0309 -0.73825,-0.0899 -0.79604,-0.15951 -0.0504,-0.0608 -0.28227,-0.21805 -0.51516,-0.34949 -0.92767,-0.52354 -3.41469,-2.59773 -3.98344,-3.3222 -0.1964,-0.25018 -0.35711,-0.48023 -0.35714,-0.51124 -3e-5,-0.031 0.20946,0.0178 0.46553,0.10841 0.64082,0.22681 1.68621,0.2761 3.09036,0.14572 0.64944,-0.0603 1.56339,-0.10966 2.03099,-0.10968 0.76785,-4e-5 0.90589,0.0239 1.42531,0.24671 0.79583,0.34145 1.84327,1.04134 2.53496,1.69385 0.4975,0.46931 0.56546,0.56521 0.46895,0.66172 -0.0621,0.0621 -0.71057,0.47404 -1.4411,0.91546 -1.32267,0.79922 -1.3301,0.80243 -1.77357,0.76591 -0.24493,-0.0202 -0.76228,-0.0587 -1.14965,-0.0857 z m -7.64576,-0.40938 c -1.49063,-0.66532 -2.80116,-1.07263 -6.87229,-2.13592 -2.898141,-0.75693 -3.979711,-1.05207 -5.080871,-1.3865 -0.86682,-0.26327 -0.88093,-0.28082 -0.70795,-0.88111 0.22564,-0.78309 0.3286,-1.55873 0.33158,-2.49797 l 0.003,-1.02369 1.0523,-1.17407 c 0.57877,-0.64573 1.16535,-1.32892 1.30351,-1.51819 0.24049,-0.32944 0.26939,-0.34412 0.67736,-0.34412 0.354871,0 0.434741,0.0271 0.477491,0.16175 0.0282,0.089 0.13089,0.17785 0.22812,0.19752 0.0972,0.0197 0.2861,0.0593 0.4197,0.088 0.1336,0.0288 0.35222,0.0583 0.48582,0.0656 l 0.24291,0.0134 -0.0177,-0.44534 c -0.0156,-0.39231 -0.0494,-0.47257 -0.2834,-0.67407 -0.14611,-0.12581 -0.4114,-0.30362 -0.58953,-0.39514 -0.17814,-0.0915 -0.35302,-0.21632 -0.38863,-0.27733 -0.0913,-0.15645 -0.861581,-0.14577 -1.091301,0.0151 -0.10484,0.0734 -0.17996,0.21104 -0.17996,0.32966 0,0.18511 -0.0116,0.19205 -0.12724,0.0764 -0.19394,-0.19395 -0.44286,-0.1552 -1.09322,0.17016 -0.70012,0.35025 -1.53705,1.14467 -1.87981,1.7843 -0.25365,0.47335 -0.49406,1.60798 -0.57971,2.73602 -0.11339,1.49326 -0.30077,2.22667 -0.5689,2.22667 -0.14454,0 -0.47793,-0.44231 -0.59296,-0.78669 -0.29199,-0.87415 -0.18582,-2.19061 0.34379,-4.26294 0.19502,-0.76312 0.41265,-1.69719 0.48363,-2.07573 0.24506,-1.30706 0.3017,-1.53843 0.37658,-1.53843 0.0413,0 0.14803,-0.0729 0.2371,-0.16194 0.15087,-0.15087 0.16194,-0.2699 0.16194,-1.74085 0,-1.49485 -0.008,-1.57892 -0.15318,-1.57892 -0.14615,0 -0.15473,-0.1125 -0.18679,-2.44934 -0.0185,-1.34714 -0.0269,-2.46005 -0.0187,-2.47313 0.008,-0.0131 0.22778,0.21869 0.48797,0.51506 0.45597,0.51935 0.47346,0.55597 0.48353,1.01283 0.01,0.44163 0.0366,0.50462 0.39333,0.92217 0.33576,0.39301 0.36152,0.44816 0.20935,0.44816 -0.60366,0 -0.72652,0.45386 -0.7014,2.59104 0.0184,1.5651 0.0322,1.69785 0.24103,2.32464 0.22325,0.66996 0.539,1.15707 0.75003,1.15707 0.0628,0 0.11425,0.0672 0.11425,0.14939 0,0.0822 0.0692,0.21206 0.15387,0.28864 0.14654,0.13261 0.17646,0.12667 0.62752,-0.12453 1.01376,-0.56459 1.58723,-1.2125 2.206321,-2.49271 0.37253,-0.77034 0.29047,-0.8095 0.7078,0.33776 0.33697,0.92634 0.79373,1.85456 1.44857,2.94371 1.2613,2.09786 1.63705,2.57754 3.62293,4.62507 1.57192,1.62072 2.05295,2.17651 2.93102,3.38654 1.37245,1.89134 1.84498,2.47233 2.57406,3.16488 0.489,0.46451 0.55624,0.55554 0.35656,0.48276 -0.29957,-0.1092 -4.08684,-3.7276 -4.64578,-4.43865 -0.22018,-0.28009 -0.74784,-1.00114 -1.17259,-1.60235 -0.42476,-0.6012 -0.92754,-1.23884 -1.11731,-1.41697 -0.52341,-0.49133 -0.5485,-0.52198 -0.96597,-1.17973 -0.21397,-0.33712 -0.51247,-0.69218 -0.66334,-0.78903 -0.15086,-0.0969 -0.37185,-0.24159 -0.49107,-0.32164 -0.11923,-0.08 -0.40357,-0.19343 -0.63188,-0.25194 -0.37386,-0.0958 -0.43077,-0.0922 -0.57269,0.0362 -0.27761,0.25123 -0.20059,0.55783 0.26872,1.0696 0.23446,0.25568 0.51444,0.59241 0.62218,0.74827 0.10774,0.15587 0.31672,0.42014 0.46438,0.58727 0.14767,0.16713 0.26849,0.36853 0.26849,0.44756 0,0.21728 0.23212,0.5036 0.40827,0.5036 0.10887,0 0.22748,0.14104 0.39153,0.46558 0.3347,0.66215 0.90265,1.41103 1.67336,2.20643 0.36679,0.37854 0.82094,0.94331 1.00923,1.25504 0.48329,0.80014 1.1243,1.58676 1.96294,2.40886 0.39752,0.38967 0.70584,0.70849 0.68516,0.70849 -0.0207,0 -0.25164,-0.0955 -0.51324,-0.2123 z m 65.22975,-2.90505 c -5.73131,-13.19425 -6.96476,-16.48414 -9.59461,-25.5911 -2.3328,-8.07825 -3.15931,-13.65812 -4.08913,-27.60621 -0.26363,-3.95461 -0.42095,-5.80902 -0.61343,-7.23074 -0.18135,-1.33951 -0.20232,-1.30667 0.57453,-0.89985 1.53688,0.80483 2.26126,1.3075 2.4887,1.72697 0.0533,0.0984 0.1158,0.86195 0.14958,1.82881 0.0463,1.32541 0.13363,2.182 0.43334,4.25093 0.66079,4.56144 1.18772,7.7778 2.03622,12.4289 2.13233,11.68845 3.1361,15.87587 5.71522,23.84209 1.27516,3.93863 1.90573,5.62368 3.05425,8.16175 0.3175,0.70164 0.66566,1.53968 0.77368,1.86231 0.4118,1.22988 0.64155,4.06597 0.52433,6.47217 -0.0376,0.77095 -0.0917,1.90495 -0.1204,2.52 -0.0287,0.61505 -0.0632,1.10695 -0.0767,1.0931 -0.0135,-0.0139 -0.57854,-1.30046 -1.25559,-2.85913 z m -98.941801,1.51526 c -0.0468,-0.16539 -0.14084,-0.69335 -0.20888,-1.17324 -0.13274,-0.93616 -1.33998,-6.93113 -1.54452,-7.66981 -0.0678,-0.24493 -0.20894,-0.68217 -0.31359,-0.97164 -0.27761,-0.76784 -0.78433,-2.44053 -0.74979,-2.47507 0.0819,-0.0819 0.93439,1.14284 1.20775,1.73501 0.49549,1.07335 1.19434,3.56219 1.69702,6.0436 0.24315,1.20031 0.26289,1.4175 0.2685,2.95541 0.003,0.91293 -0.021,1.72595 -0.0541,1.80671 -0.0833,0.20342 -0.20149,0.10537 -0.3024,-0.25097 z m 46.389791,-3.74194 c -0.48596,-0.63227 -1.04838,-1.71559 -1.04838,-2.01935 0,-0.1206 0.0944,-0.52629 0.20977,-0.90154 l 0.20977,-0.68227 -0.0665,-2.02425 c -0.13011,-3.9627 -0.0897,-7.09294 0.11768,-9.10913 0.2822,-2.74409 0.39624,-3.51032 0.61789,-4.15181 0.22872,-0.66195 0.62607,-1.11124 0.98278,-1.11124 0.35673,0 1.42807,0.61917 3.26121,1.88478 2.7501,1.89869 4.48665,3.03827 4.71625,3.09496 0.27267,0.0673 0.47722,-0.13019 0.47722,-0.46082 v -0.24673 l 0.26845,0.20476 c 0.14765,0.11261 0.62871,0.42665 1.06902,0.69785 l 0.80056,0.4931 -0.36053,0.001 c -0.71032,0.002 -1.00993,0.37559 -0.63035,0.78528 0.10387,0.1121 0.74001,0.67083 1.41364,1.2416 0.67363,0.57078 1.30216,1.16298 1.39674,1.31599 0.12926,0.20916 0.17194,0.4093 0.17194,0.8063 0,0.49687 -0.0209,0.55613 -0.35311,1.00257 -0.75823,1.01885 -6.9631,7.00829 -10.13251,9.78072 l -1.45746,1.27491 -0.6298,-0.67528 c -0.34639,-0.3714 -0.81183,-0.91212 -1.03432,-1.20159 z m -42.582901,1.68352 c -0.11895,-0.0743 -0.25993,-0.0764 -0.58593,-0.009 -0.23612,0.0489 -0.44165,0.0776 -0.45673,0.0636 -0.0151,-0.014 -0.0629,-0.18307 -0.10615,-0.3758 -0.0433,-0.19274 -0.15,-0.42632 -0.23712,-0.51908 -0.17465,-0.18594 -0.39491,-1.09326 -0.39711,-1.63578 -7.7e-4,-0.19084 -0.0545,-0.428 -0.11938,-0.52703 -0.18033,-0.27521 -0.52455,-1.79552 -0.58127,-2.56723 l -0.0506,-0.68824 0.30043,0.28339 c 0.94619,0.89254 1.53887,2.1915 1.70541,3.73772 0.0272,0.25214 0.13597,0.6165 0.2418,0.8097 0.34627,0.63211 0.50569,0.99472 0.55492,1.26218 0.0521,0.28286 -0.0144,0.32385 -0.26828,0.16533 z m 39.845131,-1.61104 c 0.22075,-0.13986 0.43515,-0.0657 0.77542,0.26826 0.19095,0.18741 0.34718,0.36485 0.34718,0.39431 0,0.0295 -0.27744,-0.0918 -0.61654,-0.26951 -0.44255,-0.23189 -0.58537,-0.34282 -0.50606,-0.39306 z m -28.895981,-0.48547 c -4.01522,-1.024 -5.19417,-1.40906 -6.7823,-2.2152 -2.35519,-1.1955 -4.85505,-3.16759 -8.06142,-6.35948 -2.33868,-2.32811 -3.39156,-3.60462 -4.50797,-5.46548 -1.5704,-2.61758 -3.27063,-6.84246 -4.56604,-11.34614 -0.0436,-0.15151 -0.0425,-0.46721 0.003,-0.78581 0.0902,-0.63683 0.0534,-0.81514 -0.20256,-0.98288 -0.60413,-0.39584 -1.02968,-2.12529 -1.16608,-4.73906 -0.0982,-1.88204 -0.16377,-2.21261 -0.79881,-4.02839 -0.2687,-0.76827 -0.62027,-1.86137 -0.78127,-2.4291 -0.40571,-1.43057 -0.47466,-1.60345 -1.47826,-3.70588 -1.17033,-2.45173 -1.63808,-3.4768 -1.63808,-3.58984 0,-0.131 0.37404,-0.11498 0.67601,0.029 0.14033,0.0669 0.52842,0.36064 0.86243,0.65278 1.07617,0.94131 1.75616,1.32264 2.40186,1.34691 0.22034,0.008 0.33986,0.0801 0.55863,0.33568 0.15307,0.17883 0.27831,0.36751 0.27831,0.41928 0,0.0518 0.22773,0.28603 0.50606,0.52057 0.42415,0.3574 0.53502,0.50691 0.68494,0.92366 0.0984,0.27347 0.18037,0.5816 0.18219,0.68473 0.005,0.25888 0.0962,0.41062 0.70867,1.17307 0.72155,0.8983 0.78404,0.92722 1.55476,0.71976 0.33787,-0.0909 0.92401,-0.28321 1.30255,-0.42725 0.61431,-0.23376 0.76218,-0.33422 1.37649,-0.93513 0.37854,-0.37028 0.90686,-0.95465 1.17407,-1.2986 0.2672,-0.34395 1.0688,-1.21027 1.78134,-1.92516 1.13153,-1.13526 1.40826,-1.46813 2.18619,-2.6297 0.89205,-1.33198 1.73318,-2.28608 2.15538,-2.44487 0.12921,-0.0486 0.29849,-0.23848 0.43312,-0.48584 0.20296,-0.3729 0.96227,-1.20486 1.09965,-1.20486 0.0322,0 0.3911,-0.25418 0.7975,-0.56486 0.41497,-0.31722 0.99585,-0.67264 1.32495,-0.81069 0.32232,-0.13521 0.73178,-0.32895 0.90991,-0.43054 l 0.32388,-0.18471 -0.0304,-1.07028 c -0.0295,-1.03842 -0.0242,-1.07965 0.17772,-1.38475 0.11446,-0.17295 0.62002,-0.66008 1.12347,-1.08251 0.99919,-0.83839 1.31604,-1.19027 1.62281,-1.80224 0.6479,-1.29247 0.47809,-2.58459 -0.68067,-5.17929 l -0.43392,-0.97164 -0.67454,-0.0236 -0.67455,-0.0236 0.0545,0.34752 c 0.0299,0.19114 0.14428,0.74833 0.25408,1.23819 0.59458,2.65274 0.62018,2.91528 0.35379,3.62728 -0.20604,0.5507 -0.42252,0.75276 -0.92775,0.86598 -0.50782,0.11381 -0.90443,0.35681 -1.05381,0.64567 -0.10842,0.20966 -0.71126,0.56946 -0.95412,0.56946 -0.0574,0 -0.1853,0.0567 -0.28428,0.12605 -0.22346,0.15652 -0.2287,0.37718 -0.0476,2.00145 0.0734,0.65798 0.10799,1.22178 0.0769,1.25287 -0.0311,0.0311 -0.15467,-0.006 -0.27461,-0.0816 -0.11995,-0.076 -0.34053,-0.19558 -0.49019,-0.26583 -0.26164,-0.1228 -0.28424,-0.11969 -0.58704,0.0807 -0.1732,0.11462 -0.31492,0.24798 -0.31492,0.29636 0,0.0484 -0.44634,0.54893 -0.99188,1.11233 -0.54553,0.5634 -1.44013,1.5029 -1.98799,2.08776 -0.93416,0.99727 -1.09669,1.13028 -2.61365,2.13903 l -1.61754,1.07563 -1.3134,-0.0188 c -1.85515,-0.0266 -2.60312,0.14858 -3.94492,0.92393 -0.27557,0.15923 -0.43984,0.2012 -0.67405,0.17222 -0.36052,-0.0446 -1.56387,-0.7008 -2.88863,-1.57518 -1.56375,-1.03211 -3.33471,-2.93265 -4.29127,-4.60525 -0.36048,-0.63033 -0.36194,-0.63606 -0.39208,-1.54138 -0.0293,-0.88081 -0.0224,-0.92554 0.22623,-1.45746 0.14107,-0.30182 0.3632,-0.7153 0.49361,-0.91884 0.13042,-0.20355 0.26015,-0.49504 0.28829,-0.64776 0.13708,-0.74381 0.88021,-1.51593 2.35552,-2.44739 0.54338,-0.34307 1.01799,-0.62376 1.05471,-0.62376 0.0367,0 0.33022,-0.16396 0.65225,-0.36436 0.86965,-0.54121 0.86333,-0.54383 1.56068,0.64776 0.75798,1.29518 1.54744,2.2224 2.71851,3.19285 0.97041,0.80417 1.90804,1.35253 2.90425,1.6985 0.71802,0.24937 0.90595,0.28174 1.65988,0.28597 1.39634,0.008 2.28114,-0.38549 3.45022,-1.53367 1.0265,-1.00816 1.75657,-2.22251 2.2636,-3.76511 0.19961,-0.60731 0.2266,-0.81203 0.22949,-1.74085 0.002,-0.79366 -0.0301,-1.14148 -0.13248,-1.41382 -0.0747,-0.19866 -0.12524,-0.37171 -0.11239,-0.38456 0.0128,-0.0129 0.31183,-0.0324 0.66441,-0.0435 0.48951,-0.0153 0.71555,0.0155 0.95616,0.13065 0.34514,0.16512 0.92581,0.15005 1.14232,-0.0296 0.23916,-0.19849 0.0823,-0.89071 -0.20189,-0.89071 -0.0379,0 -0.11028,-0.12536 -0.16084,-0.27857 -0.12192,-0.3694 -1.30038,-1.53029 -1.9557,-1.92654 -1.03093,-0.62336 -3.09188,-1.13727 -5.17126,-1.28949 -3.77456,-0.2763 -8.16147,0.292 -11.3358,1.46849 -1.02465,0.37976 -1.70074,0.5801 -1.69935,0.50356 0.002,-0.096 0.88216,-0.83491 1.44626,-1.21384 1.08601,-0.72953 3.4138,-1.7474 5.31371,-2.32351 2.28674,-0.69341 3.99143,-0.93498 6.59173,-0.93411 2.17657,7.3e-4 2.65462,-0.0432 2.76758,-0.25426 0.11446,-0.21388 -0.26174,-0.88321 -0.72621,-1.29205 -0.54268,-0.47769 -1.03043,-0.59616 -2.43889,-0.59239 -1.30315,0.003 -1.94739,0.10724 -4.51766,0.7276 -2.95838,0.71404 -4.1344,1.10293 -5.96655,1.97303 l -1.0512,0.49922 -1.45887,1.44318 c -1.46004,1.44433 -1.86282,1.75809 -2.14284,1.66921 -0.0823,-0.0261 -0.48425,-0.35591 -0.89331,-0.7329 -0.85828,-0.79099 -1.00271,-0.83188 -1.36899,-0.38753 -0.33326,0.40432 -0.37959,0.66988 -0.18379,1.05367 0.17976,0.35236 0.85901,1.25327 1.56373,2.07402 0.26028,0.30314 0.47323,0.60168 0.47323,0.66342 0,0.18066 -0.33528,0.36434 -0.66507,0.36434 -0.22062,0 -0.40227,-0.0741 -0.65565,-0.26753 -0.36135,-0.27583 -0.45887,-0.32062 -1.35129,-0.62062 -0.74819,-0.25153 -0.76012,-0.25412 -0.85461,-0.18576 -0.047,0.034 -0.21685,0.27899 -0.37753,0.54445 l -0.29214,0.48267 0.16312,0.31975 c 0.0897,0.17586 0.37803,0.68167 0.64069,1.12402 0.26266,0.44235 0.47756,0.88596 0.47756,0.9858 0,0.17686 -0.62472,1.27978 -1.02377,1.80742 -0.10946,0.14473 -0.24997,0.26315 -0.31225,0.26315 -0.12217,0 -0.60627,-0.4787 -0.60688,-0.60012 -5e-4,-0.0975 -0.57062,-0.60362 -0.74187,-0.65853 -0.20607,-0.0661 -0.25623,-0.27978 -0.0657,-0.27978 0.14789,0 0.16031,-0.0629 0.17199,-0.87043 0.007,-0.47873 0.006,-0.94965 -0.002,-1.04648 -0.008,-0.0968 0.0925,-0.345 0.2234,-0.55149 0.14128,-0.22278 0.26043,-0.54628 0.29302,-0.79559 0.052,-0.39805 0.56844,-1.75138 0.81579,-2.13791 0.0631,-0.0986 0.1151,-0.22616 0.11551,-0.28339 0.001,-0.17177 0.69334,-1.81243 0.93976,-2.2277 0.12612,-0.21254 0.30612,-0.62327 0.4,-0.91274 0.0939,-0.28947 0.26791,-0.73022 0.38673,-0.97946 0.11883,-0.24923 0.21604,-0.49774 0.21604,-0.55225 0,-0.13922 1.00725,-2.683041 1.33319,-3.366979 0.14856,-0.311735 0.29643,-0.657882 0.32859,-0.769216 0.0923,-0.319519 1.50342,-4.151852 1.59504,-4.331896 0.25914,-0.509233 0.83305,-1.247862 1.00265,-1.290429 0.10502,-0.02636 0.24392,-0.150385 0.30868,-0.275616 0.13843,-0.26768 0.57038,-0.505753 2.31431,-1.275541 0.82082,-0.362321 1.586,-0.77463 2.21165,-1.191734 1.00841,-0.67228 1.23612,-0.934003 1.00966,-1.16047 -0.1156,-0.115595 -0.29582,-0.111244 -1.9782,0.04775 -2.65008,0.250455 -2.78347,0.272544 -2.95963,0.490092 -0.0824,0.101776 -0.17383,0.161059 -0.20315,0.131742 -0.0293,-0.02932 -0.0102,-0.09642 0.0425,-0.14912 0.0527,-0.0527 0.0958,-0.158114 0.0958,-0.234259 0,-0.07614 0.11134,-0.478768 0.24744,-0.894719 0.13609,-0.41595 0.28358,-1.047766 0.32775,-1.404034 0.0908,-0.732384 0.49112,-2.197334 0.71825,-2.62847 0.083,-0.157548 0.16832,-0.359324 0.1896,-0.448391 0.1964,-0.822088 0.64518,-2.360176 0.74495,-2.55311 0.0703,-0.135917 0.19309,-0.834035 0.28095,-1.597156 0.1711,-1.486092 0.33284,-2.339951 0.76515,-4.039352 0.19642,-0.772136 0.4387,-2.220096 0.77708,-4.644132 0.27043,-1.937208 0.61402,-4.269145 0.76354,-5.182082 0.14952,-0.912938 0.29635,-1.987815 0.32629,-2.388616 0.0299,-0.400802 0.0885,-0.856258 0.13003,-1.012126 0.0416,-0.155867 0.13299,-0.556669 0.20314,-0.89067 0.0701,-0.334002 0.15478,-0.656027 0.18808,-0.715613 0.1148,-0.205419 0.65341,1.320797 0.65341,1.851509 0,0.343501 0.24388,1.071412 0.45077,1.345441 0.10575,0.140064 0.28474,0.602162 0.39775,1.026884 0.113,0.424723 0.38734,1.288148 0.60963,1.918722 0.22229,0.630575 0.40416,1.246972 0.40416,1.369772 0,0.1228 0.12349,0.456492 0.27442,0.741538 0.15093,0.285046 0.51899,1.137686 0.8179,1.894756 2.05136,5.19563 5.13868,11.933275 9.08998,19.837657 2.21062,4.422225 3.04395,5.846284 4.45388,7.611183 0.55327,0.692562 0.64153,0.845073 0.61006,1.054206 -0.0312,0.207396 0.0623,0.3747 0.61633,1.102339 0.3592,0.47181 1.10906,1.33944 1.66633,1.92808 0.89318,0.94342 1.01324,1.10324 1.01324,1.34874 0,0.21304 0.0443,0.2987 0.18858,0.36442 0.10371,0.0473 0.23084,0.20133 0.2825,0.34239 0.0948,0.25897 0.53371,0.78277 0.65584,0.78277 0.0364,0 0.15902,0.1404 0.27259,0.31201 0.11356,0.1716 0.61375,0.80013 1.11153,1.39673 0.49777,0.5966 1.12472,1.39443 1.39321,1.77297 0.26849,0.37853 0.69515,0.9433 0.94814,1.25503 0.253,0.31174 0.56089,0.74183 0.68421,0.95577 0.49825,0.86437 2.49605,3.02641 3.97696,4.30389 0.84086,0.72535 2.61085,2.05794 4.413281,3.32267 2.09201,1.46791 3.05085,2.20926 3.94614,3.05108 0.61093,0.57444 1.29565,1.09515 2.40152,1.82628 3.04221,2.01133 4.26892,2.96952 4.58052,3.5779 0.17193,0.3357 0.49512,0.59327 1.03661,0.82616 l 0.38315,0.16479 -0.24291,0.1031 c -0.45184,0.19178 -1.35585,0.78458 -2.35262,1.54274 -0.54572,0.41508 -1.15885,0.85234 -1.36251,0.9717 -0.52145,0.30559 -1.58531,0.67244 -4.38188,1.511 -5.44461,1.63259 -7.451531,2.4537 -9.716401,3.97535 -1.45348,0.97652 -2.17936,1.68383 -2.63896,2.57145 -0.27716,0.53529 -0.26901,1.34007 0.0198,1.95616 l 0.21482,0.45822 -0.26781,-0.15801 c -0.89046,-0.52539 -1.53213,-0.23283 -2.14284,0.97698 -0.1347,0.26684 -0.5569,0.98754 -0.93822,1.60155 -1.48613,2.39302 -1.67844,3.23138 -1.04461,4.55395 0.14937,0.3117 0.77712,1.36006 1.39497,2.32969 0.61786,0.96964 1.29816,2.04636 1.51178,2.39272 0.42374,0.68706 1.17099,1.41902 1.52172,1.49058 0.19485,0.0398 0.21448,0.071 0.16194,0.25798 -0.0329,0.117 -0.0598,0.68811 -0.0598,1.26913 0,0.89284 0.0233,1.09188 0.15029,1.28556 0.0827,0.12603 0.1822,0.34039 0.22119,0.47635 0.0645,0.22504 -0.0117,1.99546 -0.13415,3.11275 l -0.0466,0.42509 h 0.2608 0.26079 l -0.0565,1.14126 c -0.0555,1.12221 -0.061,1.14786 -0.32782,1.53572 -0.4439,0.64532 -0.86971,1.90043 -1.29478,3.81653 -0.46648,2.10272 -0.55547,3.50852 -0.295,4.66011 0.0831,0.3674 0.13729,0.668 0.12044,0.668 -0.0169,0 -1.18799,-0.29515 -2.60252,-0.6559 z m -19.98042,-21.40792 c 0.0445,-0.0148 0.18051,-0.0488 0.30216,-0.0756 0.12165,-0.0268 0.35152,-0.16318 0.51083,-0.30305 0.43789,-0.38447 0.62482,-0.81692 0.66837,-1.54622 0.0346,-0.57945 0.0178,-0.66897 -0.21425,-1.14028 -0.32153,-0.65312 -0.58821,-0.94697 -0.8074,-0.88965 -0.17648,0.0461 -0.18216,0.0558 -0.4669,0.79643 -0.17485,0.45475 -0.18678,0.4677 -0.18665,0.20242 8e-5,-0.15586 0.0303,-0.57086 0.0671,-0.92221 0.0947,-0.90328 0.0142,-1.13472 -0.48184,-1.38609 -0.64744,-0.32808 -0.77881,-0.28943 -1.05014,0.30898 -0.36556,0.80621 -0.49736,1.44164 -0.49898,2.40554 -0.001,0.7108 0.0301,0.94182 0.17221,1.27221 0.20168,0.46883 0.64941,0.9363 1.05433,1.10083 0.30918,0.12562 0.80263,0.21924 0.93115,0.17666 z m -0.50191,-8.06486 c 0.1673,-0.13791 0.37321,-0.38604 0.45758,-0.5514 0.32552,-0.63808 0.65133,-2.2913 0.6515,-3.30581 1e-4,-0.61683 -0.017,-0.68582 -0.22794,-0.92195 -0.18854,-0.21102 -0.28805,-0.25523 -0.57443,-0.25523 -0.62493,0 -0.91848,0.49385 -1.50521,2.5323 -0.31775,1.10394 -0.36409,1.78901 -0.15134,2.23734 0.27557,0.58072 0.83371,0.69019 1.34984,0.26475 z m 5.76497,-1.40005 c 1.53448,-0.66973 3.44301,-7.32319 3.44006,-11.99266 -8.1e-4,-1.2715 -0.0503,-1.5369 -0.34038,-1.82703 -0.19253,-0.19253 -0.30695,-0.2377 -0.60207,-0.2377 -0.65511,0 -0.72946,0.13954 -1.31587,2.46958 -0.62073,2.46645 -1.26582,4.58666 -2.03242,6.68003 -0.76033,2.07622 -0.87825,2.45779 -0.93837,3.03638 -0.0639,0.61498 0.0627,1.09269 0.3875,1.46266 0.44209,0.50351 0.88708,0.63329 1.40155,0.40874 z m 7.9225,-4.05406 c 1.13117,-0.40399 1.83636,-2.38745 2.08383,-5.86115 0.14002,-1.96557 -0.0316,-2.9309 -0.57067,-3.20966 -0.29842,-0.15432 -0.43572,-0.15426 -0.73461,3e-4 -0.3619,0.18715 -0.51555,0.58174 -1.04431,2.68184 -0.2675,1.06248 -0.63429,2.4419 -0.81508,3.06536 -0.5342,1.84217 -0.52073,2.61347 0.0545,3.11848 0.15145,0.13298 0.32578,0.24178 0.38739,0.24178 0.0616,0 0.16054,0.0167 0.21985,0.0371 0.0593,0.0204 0.24792,-0.0129 0.41915,-0.0741 z m 6.21504,-2.90037 c 0.41645,-0.27903 0.77282,-0.87834 1.03826,-1.74603 0.68654,-2.24432 1.52614,-5.86175 2.2321,-9.61709 0.29206,-1.5536 0.71819,-3.75126 0.94696,-4.88369 l 0.41596,-2.05897 -0.15483,-0.28666 c -0.2006,-0.37142 -0.57921,-0.49852 -0.88608,-0.29745 -0.11553,0.0757 -0.31123,0.29716 -0.43488,0.49215 -0.52264,0.82411 -1.52356,3.69615 -2.56769,7.36773 -0.37994,1.33601 -0.9827,3.39467 -1.33947,4.57481 -0.80672,2.66847 -1.05133,3.72579 -1.06773,4.61529 -0.0157,0.85126 0.14929,1.32893 0.59954,1.73571 0.39081,0.35307 0.79483,0.38764 1.21786,0.1042 z m 7.27903,-2.48559 c 1.09205,-0.14138 1.507,-0.67968 2.37335,-3.07894 0.80987,-2.24283 1.414671,-4.93469 1.318921,-5.87033 -0.10091,-0.98616 -0.33612,-1.41698 -0.773621,-1.41698 -0.40833,0 -0.79862,0.55282 -1.29509,1.8344 -0.23885,0.61656 -0.7594,1.86796 -1.15678,2.7809 -1.14729,2.63575 -1.34776,3.16645 -1.43921,3.81 -0.15579,1.09637 0.0461,2.04905 0.42588,2.00922 0.0557,-0.006 0.30162,-0.0366 0.54655,-0.0683 z M 68.784139,76.324803 c 0.79621,-0.248627 1.34095,-0.953225 1.3398,-1.732963 -8.2e-4,-0.551626 -0.18352,-0.941023 -0.72311,-1.541178 l -0.38596,-0.429279 -0.31986,0.635707 c -0.35089,0.697375 -0.38294,0.691386 -0.49528,-0.09257 -0.064,-0.446482 -0.23252,-0.769215 -0.40171,-0.769215 -0.0603,0 -0.15503,-0.05465 -0.21047,-0.121455 -0.18605,-0.224179 -0.45578,-0.139946 -0.79845,0.249346 -0.59692,0.67814 -0.77962,1.781665 -0.42696,2.57891 0.23346,0.527779 0.82292,1.069173 1.32713,1.218906 0.49173,0.146029 0.63775,0.146534 1.09487,0.0038 z m 48.356541,95.984477 c -0.30999,-0.092 -3.87496,-0.39861 -4.65837,-0.40059 -0.32706,-8.3e-4 -0.59411,-0.0549 -0.80658,-0.16318 -0.1747,-0.0891 -0.38344,-0.16194 -0.46387,-0.16194 -0.0804,0 -0.43998,-0.18218 -0.799,-0.40485 -0.35901,-0.22266 -0.74212,-0.40485 -0.85136,-0.40485 -0.37567,0 -0.72952,-0.22288 -1.6951,-1.06771 -1.25684,-1.09965 -1.57504,-1.46207 -2.53618,-2.88858 -0.8624,-1.27998 -1.31733,-2.11749 -1.56692,-2.88467 -0.0871,-0.26775 -0.39027,-0.88763 -0.67369,-1.37749 -0.60165,-1.03991 -0.86993,-1.71134 -1.0382,-2.5983 -0.0668,-0.35228 -0.21112,-0.95022 -0.32064,-1.32875 -0.10953,-0.37854 -0.24181,-1.08905 -0.29397,-1.57892 -0.0914,-0.85804 -0.0877,-0.91143 0.0999,-1.45746 0.18847,-0.54843 0.20279,-0.56596 0.44212,-0.54131 0.35595,0.0367 0.50676,-0.21471 0.50676,-0.84467 0,-0.60334 -0.23135,-1.39228 -0.56034,-1.91077 l -0.24227,-0.38183 0.48891,0.35991 c 0.59958,0.44139 1.88905,0.89261 2.20622,0.77203 0.2322,-0.0883 0.30174,-0.18625 0.37036,-0.52175 0.0586,-0.28648 0.16447,-0.34723 1.13787,-0.65287 0.55147,-0.17316 0.7526,-0.20236 1.01212,-0.14694 l 0.32388,0.0692 0.0556,0.48255 c 0.18972,1.64619 0.62598,3.73657 1.01167,4.84749 0.6403,1.84425 2.12291,4.83346 2.93052,5.90845 0.20602,0.27423 0.4753,0.65278 0.5984,0.84123 0.27908,0.42723 0.55837,0.46608 0.74575,0.10374 0.17908,-0.3463 0.15915,-0.46522 -0.20359,-1.21534 -0.34252,-0.70828 -1.11378,-3.10766 -1.57568,-4.90192 -0.3058,-1.18788 -0.52569,-2.54211 -0.52757,-3.24919 -6.9e-4,-0.26148 -0.054,-0.69405 -0.11845,-0.96125 -0.32379,-1.34228 -0.22694,-2.24267 0.33223,-3.08876 0.44112,-0.66747 1.62006,-1.82302 2.31623,-2.27028 0.32373,-0.20798 0.60915,-0.40839 0.63427,-0.44536 0.0251,-0.037 0.33482,-0.12459 0.68824,-0.19471 0.35342,-0.0701 1.07982,-0.23251 1.61423,-0.36084 1.00158,-0.24051 1.78278,-0.3512 3.11993,-0.44204 0.64379,-0.0437 0.88551,-0.0235 1.45746,0.12232 0.7473,0.19047 1.76819,0.68123 1.83955,0.88431 0.0246,0.0701 0.0891,0.18211 0.14325,0.24891 0.19143,0.23614 0.20493,1.04862 0.0289,1.73874 -0.11028,0.43236 -0.13584,0.65526 -0.0774,0.67475 0.18048,0.0602 0.0812,0.19356 -0.10866,0.14592 -0.15728,-0.0395 -0.28356,0.0309 -0.63954,0.3562 -0.2956,0.27016 -0.48716,0.38866 -0.57426,0.35524 -0.20117,-0.0772 -0.37493,0.11766 -0.66686,0.74779 -0.28182,0.60831 -0.83828,2.53299 -0.83828,2.89942 0,0.11844 -0.0629,0.33196 -0.13982,0.47448 -0.1042,0.19311 -0.15419,0.55827 -0.1962,1.4332 -0.031,0.64573 -0.0926,1.37446 -0.13695,1.6194 -0.37345,2.06418 -0.35917,1.82234 -0.2916,4.93917 0.10675,4.92389 0.0967,5.79773 -0.0728,6.35615 -0.14619,0.48162 -0.47467,1.07721 -0.84453,1.53129 -0.16579,0.20354 -0.18467,0.28932 -0.13816,0.62752 0.0599,0.4358 0.0369,0.45164 -0.44767,0.30775 z m -67.849881,-4.16693 c 0,-0.0445 0.0353,-0.0263 0.0785,0.0405 0.0432,0.0668 0.0785,0.15789 0.0785,0.20243 0,0.0445 -0.0353,0.0263 -0.0785,-0.0405 -0.0432,-0.0668 -0.0785,-0.15789 -0.0785,-0.20242 z m 87.453341,-1.13224 c -0.19557,-0.68953 -0.37265,-1.43145 -0.39353,-1.64871 -0.0358,-0.37231 -0.0123,-0.43245 0.40755,-1.04554 0.52193,-0.76211 0.65898,-1.12453 0.6053,-1.60077 -0.0566,-0.50232 -0.31371,-0.97181 -0.88985,-1.62501 -0.57202,-0.64855 -1.35705,-1.63314 -1.35705,-1.70205 0,-0.0251 0.28238,0.10889 0.62752,0.29767 1.3889,0.75969 1.99703,1.29442 2.08761,1.83562 0.0281,0.16795 0.0616,0.3418 0.0744,0.38634 0.0128,0.0445 -0.0257,0.1375 -0.0856,0.2066 -0.17956,0.20716 -0.47786,2.79121 -0.57201,4.95523 -0.0286,0.65687 -0.0737,1.19431 -0.10036,1.19431 -0.0266,0 -0.2084,-0.56416 -0.40397,-1.25369 z m -61.019101,0.12011 c -0.0275,-0.0445 -0.0136,-0.081 0.0309,-0.081 0.0445,0 0.10348,0.0364 0.13101,0.081 0.0275,0.0445 0.0136,0.081 -0.0309,0.081 -0.0445,0 -0.10349,-0.0364 -0.13101,-0.081 z m 22.19551,-5.47248 c -0.0722,-0.76092 -0.13118,-1.57348 -0.13118,-1.8057 v -0.42221 l 0.26316,0.19676 c 0.14473,0.10823 0.57286,0.37066 0.95139,0.58319 0.86631,0.4864 1.136471,0.69186 1.320341,1.00412 0.1721,0.29227 0.13248,0.3097 -0.17957,0.079 -0.214291,-0.15843 -0.244931,-0.16128 -0.472011,-0.0438 -0.32935,0.17031 -0.89156,0.81113 -1.23555,1.4083 -0.15586,0.27059 -0.30634,0.46766 -0.33439,0.43794 -0.028,-0.0297 -0.11003,-0.67662 -0.18219,-1.43754 z m 77.072621,-2.38677 c -0.0611,-0.27839 -0.38979,-0.56163 -0.65167,-0.56163 -0.25415,0 -0.52126,-0.36226 -0.52126,-0.70694 0,-0.15414 -0.17958,-0.70486 -0.39909,-1.22387 -0.60147,-1.42218 -1.32416,-3.72986 -1.1306,-3.61023 0.15508,0.0958 0.44977,0.65445 0.72332,1.37108 0.1987,0.52056 0.38362,0.84523 0.64731,1.13656 0.67432,0.74499 1.14173,1.4633 1.08897,1.67353 -0.0348,0.13865 0.008,0.24264 0.15895,0.38425 0.11366,0.10678 0.20666,0.22931 0.20666,0.27229 0,0.043 0.11028,0.25737 0.24507,0.47644 0.21548,0.3502 0.23878,0.44569 0.19299,0.79091 -0.0517,0.38942 -0.0539,0.39197 -0.28048,0.313 -0.15686,-0.0547 -0.2446,-0.15346 -0.28017,-0.31539 z m -37.55899,-0.34149 c -0.72244,-0.34308 -2.88721,-1.80059 -5.63739,-3.79555 -2.6375,-1.91323 -3.74376,-2.67842 -5.10111,-3.52836 -1.85551,-1.16188 -2.42911,-1.68777 -2.42911,-2.22705 0,-0.13083 0.16047,-0.64459 0.3566,-1.14167 0.57847,-1.46615 0.57375,-1.43696 0.57168,-3.53533 -0.002,-1.94469 -0.0961,-3.01802 -0.44975,-5.12734 -0.45507,-2.71401 -1.15938,-4.58509 -2.49874,-6.63812 -0.31395,-0.48125 -0.57083,-0.89165 -0.57083,-0.912 0,-0.0203 0.11842,0.0148 0.26316,0.0782 0.14473,0.0634 0.73682,0.3226 1.31576,0.57603 1.46785,0.64257 3.07298,1.31131 6.63954,2.76626 3.69571,1.50762 4.15318,1.69972 6.2347,2.618 2.20758,0.9739 2.62699,1.02231 2.50526,0.28915 -0.0841,-0.50655 -0.23,-0.72414 -0.82417,-1.22916 -0.87338,-0.74233 -1.36081,-1.02408 -4.19117,-2.42272 -3.51452,-1.73672 -5.3543,-2.80221 -8.95525,-5.18635 -3.37939,-2.23745 -5.33853,-3.81818 -7.61349,-6.14292 -1.6022,-1.63726 -2.038,-2.07136 -3.78457,-3.76978 -0.82788,-0.80505 -1.95393,-2.15503 -1.95393,-2.34249 0,-0.0337 0.29348,-0.30896 0.65217,-0.61166 0.75578,-0.63779 0.90524,-0.89069 1.31669,-2.22793 0.90631,-2.9456 1.16356,-4.5942 0.78097,-5.00487 -0.15807,-0.16967 -0.33263,-0.21535 -0.68509,-0.17929 -0.26709,0.0273 -0.51585,0.32338 -0.98823,1.17615 -0.81471,1.47075 -1.73866,2.98431 -2.31507,3.79242 l -0.56815,0.79653 -0.33144,-0.39109 c -0.18229,-0.21509 -0.51362,-0.59179 -0.73629,-0.83709 -0.22266,-0.2453 -0.64955,-0.79212 -0.94862,-1.21514 -0.29908,-0.42303 -0.98721,-1.26104 -1.52919,-1.86224 -1.65099,-1.8314 -1.61117,-1.7695 -1.61117,-2.50479 0,-0.59062 0.0184,-0.65635 0.30992,-1.10607 0.28717,-0.44303 0.97034,-1.22623 2.45541,-2.81494 l 0.59492,-0.63644 0.48582,0.14052 c 0.2672,0.0773 0.58203,0.18947 0.69962,0.24932 0.17953,0.0914 0.30282,0.0907 0.76922,-0.004 0.30548,-0.062 0.98534,-0.15081 1.51081,-0.19725 0.73345,-0.0648 1.0087,-0.12239 1.18485,-0.24781 0.36237,-0.25803 0.73659,-0.72437 0.78815,-0.98217 0.0405,-0.20245 0.0846,-0.23627 0.30844,-0.23627 0.14366,0 0.36997,0.0379 0.50291,0.0843 0.28611,0.0997 1.65185,-0.19201 2.43059,-0.51921 0.70935,-0.29805 1.19556,-0.42245 3.16669,-0.81027 2.08659,-0.41053 1.76178,-0.23586 3.67891,-1.978323 0.65687,-0.597023 1.1943,-1.136185 1.1943,-1.198139 0,-0.159108 0.23933,-0.143206 1.494,0.09927 1.04751,0.202438 1.106,0.2057 1.30856,0.07298 0.21132,-0.138462 0.21339,-0.137607 0.6134,0.253668 0.22075,0.21593 0.52935,0.565673 0.68579,0.777207 0.15644,0.211534 0.33031,0.384608 0.3864,0.384608 0.18503,0 2.42127,1.929239 4.56808,3.940949 0.34083,0.31939 0.77916,0.67107 0.97407,0.78152 0.36571,0.20725 1.30439,0.97841 3.07271,2.52435 0.95475,0.83468 1.27892,1.18948 1.67403,1.8322 0.0891,0.14489 0.43521,0.49618 0.76921,0.78064 0.334,0.28447 0.93773,0.82068 1.34161,1.19159 0.98785,0.90718 1.62135,1.33627 2.76087,1.87001 0.52698,0.24684 1.07187,0.50441 1.21087,0.57239 0.13899,0.068 0.4407,0.31393 0.67045,0.54657 l 0.41773,0.42299 0.32437,1.65486 c 0.4175,2.12995 0.59689,3.23159 0.84301,5.17705 0.36072,2.8513 1.0496,9.75618 1.35308,13.56248 0.0675,0.84685 0.10379,2.93599 0.10473,6.03227 l 0.001,4.73675 -0.18804,0.5263 c -0.30986,0.86729 -1.24829,2.42939 -3.5266,5.87033 -2.55462,3.85826 -3.43876,4.98779 -5.29325,6.7624 l -1.03239,0.98792 -0.46899,-0.042 c -0.29758,-0.0266 -0.68482,-0.14445 -1.05947,-0.32237 z m 6.07218,-26.28546 c 0.61842,-0.28083 0.9751,-0.9383 1.08455,-1.9991 0.11244,-1.08985 -0.0486,-1.40867 -0.71171,-1.40867 -0.36992,0 -0.5214,0.1393 -0.66038,0.60727 -0.0529,0.17814 -0.15183,0.47932 -0.21985,0.66929 l -0.12366,0.34541 -0.58672,-0.54793 c -1.10822,-1.03496 -2.06397,-1.3308 -2.06968,-0.64065 -0.002,0.30553 0.49639,1.62168 0.7723,2.03736 0.6414,0.96632 1.63528,1.33659 2.51515,0.93702 z m -21.70937,-12.22306 c 0.62515,-0.28555 1.20247,-1.0689 1.71588,-2.32818 0.59348,-1.4557 2.40865,-7.8622 2.3296,-8.22213 -0.1075,-0.48943 -0.79736,-0.63978 -1.23725,-0.26964 -0.13231,0.11134 -0.2745,0.20243 -0.31598,0.20243 -0.196,0 -0.49752,0.53521 -1.50533,2.67201 -1.53898,3.26301 -2.47236,5.30254 -2.69662,5.89242 -0.22507,0.59201 -0.25363,1.28588 -0.0677,1.6454 0.27634,0.53438 1.09097,0.72123 1.77741,0.40769 z m 5.09029,-2.03302 c 1.04041,-0.3303 2.26488,-2.11523 3.85447,-5.61875 1.27638,-2.81321 2.5125,-6.24405 2.5125,-6.97344 0,-0.71965 -0.76139,-0.91682 -1.35482,-0.35084 -0.5913,0.56395 -1.13057,1.39443 -3.20951,4.94277 -0.68582,1.17054 -1.60296,2.72946 -2.0381,3.46426 -1.01991,1.72227 -1.33907,2.41166 -1.39327,3.00945 -0.0527,0.58091 0.13349,1.12653 0.4649,1.36251 0.26729,0.19034 0.83081,0.26976 1.16383,0.16404 z m -11.02208,-1.16686 c 0.16659,-0.0609 0.39294,-0.16974 0.50298,-0.24185 0.28109,-0.18417 0.96856,-1.0262 1.46249,-1.79128 0.64746,-1.00289 2.43358,-4.23479 3.03996,-5.50066 0.62925,-1.31362 2.52757,-5.77254 2.65879,-6.24515 0.19573,-0.70498 0.0275,-1.02086 -0.55194,-1.03606 -0.71634,-0.0188 -0.87159,0.18399 -5.44274,7.10879 -1.37979,2.09024 -2.6506,4.09424 -2.82401,4.45336 -0.57781,1.19656 -0.69721,2.01846 -0.38323,2.63793 0.29048,0.57309 0.94082,0.83316 1.5377,0.61492 z m 18.55598,-1.10405 c 0.19449,-0.17927 0.48123,-0.57096 0.6372,-0.87043 0.35065,-0.67322 1.67781,-4.68502 1.73589,-5.2473 0.0389,-0.37687 0.0237,-0.42616 -0.18077,-0.58703 -0.40957,-0.32217 -1.09289,-0.18299 -1.56107,0.31797 -0.56851,0.6083 -1.97779,3.27072 -2.37458,4.48607 -0.22811,0.69867 -0.24647,1.38269 -0.0454,1.68961 0.22177,0.33847 0.6085,0.53641 1.04867,0.53676 0.33888,2.7e-4 0.42991,-0.0398 0.74003,-0.32565 z m 40.50649,37.10789 c -0.58218,-0.87481 -1.28149,-2.24388 -1.22344,-2.39517 0.0489,-0.12737 -0.21201,-0.69169 -0.60963,-1.31867 -0.13223,-0.20851 -0.31969,-0.6199 -0.41658,-0.9142 -0.25687,-0.78028 -0.71772,-1.65571 -1.27927,-2.43014 -0.27481,-0.37899 -0.49343,-0.7658 -0.49343,-0.87303 0,-0.30508 -0.22704,-0.77015 -0.52627,-1.07801 -0.35386,-0.36407 -0.6411,-0.99808 -0.54065,-1.19334 0.079,-0.15351 0.0626,-0.24526 -0.11441,-0.64072 -0.0628,-0.14033 -0.11419,-0.30627 -0.11419,-0.36875 0,-0.0625 -0.11523,-0.29382 -0.25607,-0.51407 -0.3418,-0.53456 -0.53746,-1.18704 -0.63888,-2.13054 -0.0461,-0.42899 -0.15277,-0.99861 -0.23701,-1.26581 -0.0842,-0.26721 -0.19418,-0.69363 -0.2443,-0.94762 -0.19793,-1.00313 -0.41919,-2.39164 -0.4386,-2.75245 -0.0112,-0.20916 -0.0629,-0.43143 -0.11478,-0.49393 -0.0727,-0.0876 -0.0645,-0.17329 0.0356,-0.37413 0.0961,-0.1926 0.11603,-0.37195 0.0765,-0.68819 l -0.0534,-0.42769 0.55085,-0.58331 c 0.51382,-0.5441 0.56822,-0.57969 0.80912,-0.52935 0.19312,0.0403 0.29301,0.12824 0.39599,0.34845 0.0757,0.16197 0.20703,0.39338 0.29172,0.51424 0.0847,0.12087 0.35334,0.8496 0.59699,1.6194 0.24364,0.76981 0.51747,1.50121 0.60849,1.62534 0.26915,0.36702 0.41152,0.84973 0.30224,1.02471 -0.0736,0.11789 -0.0565,0.23291 0.083,0.55719 0.0967,0.22474 0.17578,0.46423 0.17578,0.53219 0,0.0679 0.2004,0.41786 0.44534,0.77757 0.30916,0.45403 0.44574,0.73353 0.44667,0.91404 7.3e-4,0.14302 0.0906,0.40577 0.19968,0.58391 0.24233,0.3957 0.2631,0.43827 0.73072,1.49794 0.20634,0.4676 0.54974,1.14168 0.7631,1.49795 0.58335,0.97408 0.64095,1.10862 0.74538,1.74094 0.0627,0.3795 0.16941,0.68621 0.30574,0.87852 l 0.20945,0.29546 0.0256,4.12807 c 0.0141,2.27044 0.007,4.10994 -0.0147,4.08778 -0.0222,-0.0222 -0.23923,-0.33922 -0.48237,-0.70458 z m -67.12891,-1.60466 c -0.0276,-0.0721 -0.0141,-0.10456 0.0318,-0.0762 0.044,0.0272 0.08,0.0838 0.08,0.12566 0,0.11647 -0.058,0.0908 -0.11187,-0.0495 z m 52.86417,-2.73743 c -0.53873,0.0805 -0.54215,0.0798 -0.62054,-0.12713 -0.0434,-0.11446 -0.15517,-0.28961 -0.24848,-0.38923 -0.15739,-0.16801 -0.16251,-0.21198 -0.0708,-0.60727 0.0544,-0.23438 0.19945,-0.64477 0.32239,-0.91197 l 0.22353,-0.48582 0.38046,0.64776 c 0.31275,0.53247 0.8633,1.77053 0.8633,1.94135 0,0.0241 -0.0693,4.9e-4 -0.15407,-0.0524 -0.11387,-0.0711 -0.29538,-0.0751 -0.69579,-0.0153 z m -68.010331,-3.19551 c -0.32161,-0.18783 -0.42967,-0.56135 -0.30129,-1.04138 0.12196,-0.45599 0.66215,-1.64479 0.74739,-1.64479 0.0352,0 0.31753,0.33704 0.62738,0.74898 0.30985,0.41193 0.64034,0.81838 0.73442,0.90322 0.23266,0.20981 0.22184,0.57575 -0.0237,0.80083 -0.27564,0.25269 -0.40274,0.34896 -0.53771,0.40729 -0.19961,0.0863 -0.98958,-0.0241 -1.24651,-0.17415 z m 3.48525,-3.58473 c -0.23677,-0.18624 -0.71839,-0.9004 -0.95027,-1.40908 -0.0817,-0.17918 -0.14843,-0.5137 -0.14941,-0.74873 -0.002,-0.41737 0.009,-0.43575 0.58525,-1.04338 1.29768,-1.36728 2.79071,-2.30912 4.959421,-3.12849 1.23837,-0.46788 2.269,-0.78525 5.18208,-1.59581 4.3969,-1.22341 4.88295,-1.43096 6.27245,-2.67839 0.4872,-0.43739 0.95801,-0.83388 1.04623,-0.8811 0.23235,-0.12434 0.50294,-0.10663 1.16233,0.0761 0.8952,0.24807 1.31736,0.217 2.27002,-0.16709 0.92318,-0.37221 1.03178,-0.36921 1.59484,0.0441 0.45823,0.33637 0.66303,0.59438 1.65189,2.08106 0.67382,1.01304 0.778,1.21277 0.70434,1.35039 -0.12784,0.23889 -0.73421,0.28646 -2.81858,0.22111 l -1.80275,-0.0565 v 0.77613 c 0,0.90688 -0.13302,1.33772 -0.413,1.33772 -0.0981,0 -0.45522,-0.15925 -0.79359,-0.35389 -0.33838,-0.19465 -0.84885,-0.47141 -1.13437,-0.61504 l -0.51913,-0.26115 -1.18124,0.0542 c -0.97383,0.0446 -1.40887,0.10947 -2.47766,0.36922 -1.59159,0.3868 -3.42394,1.00419 -4.51961,1.52283 -1.20576,0.57075 -3.18417,1.81058 -5.114921,3.20541 -0.35627,0.25738 -0.79237,0.54179 -0.96911,0.63202 -0.17673,0.0902 -0.57087,0.36315 -0.87584,0.60649 -0.62383,0.49774 -1.16769,0.8293 -1.36269,0.83076 -0.0719,5.3e-4 -0.22794,-0.0754 -0.34668,-0.16886 z m 78.859161,-7.6089 c -0.0612,-0.37545 -0.14893,-0.78092 -0.19503,-0.90104 -0.0461,-0.12012 -0.19723,-0.81242 -0.33583,-1.53843 -0.13861,-0.72602 -0.39925,-1.90301 -0.5792,-2.61555 -0.35827,-1.41862 -0.45955,-2.32551 -0.31792,-2.84672 0.0503,-0.18515 0.23744,-0.51308 0.41582,-0.72873 0.17839,-0.21564 0.35682,-0.50935 0.39651,-0.65269 0.0647,-0.23347 0.99468,-2.00365 1.12654,-2.14424 0.0293,-0.0312 0.0538,1.04368 0.0544,2.38862 6.8e-4,1.34493 0.0316,4.13527 0.0687,6.20076 0.073,4.06592 0.069,4.11029 -0.33683,3.70595 -0.13796,-0.13747 -0.21466,-0.36151 -0.29716,-0.86793 z M 67.754979,131.1188 c -0.26296,-0.21366 -0.36469,-1.06514 -0.20193,-1.69017 0.1407,-0.54033 0.4072,-1.03226 0.71498,-1.31978 l 0.21007,-0.19624 0.95146,0.26844 c 0.5233,0.14765 1.21646,0.28635 1.54036,0.30823 0.3239,0.0219 0.60823,0.071 0.63184,0.10923 0.11432,0.18497 -1.16727,1.98292 -1.66716,2.33887 -0.35226,0.25084 -0.5967,0.30824 -1.3462,0.31616 -0.51462,0.005 -0.69725,-0.0241 -0.83342,-0.13474 z m 99.054461,-1.53118 c -0.40104,-1.71682 -0.0956,-3.39023 0.7972,-4.36706 0.46149,-0.50494 1.1534,-0.93366 2.20558,-1.36663 1.57806,-0.64936 2.48344,-1.27675 2.91072,-2.01698 0.23662,-0.40994 0.53051,-1.35288 0.53051,-1.70217 0,-0.34762 -0.12713,-0.453 -0.54652,-0.453 -0.51495,0 -0.77991,0.16943 -0.94629,0.60511 -0.34787,0.91086 -0.92712,1.35683 -2.55569,1.96761 -0.97775,0.36669 -1.62517,0.67831 -2.01086,0.96788 -0.1485,0.11149 -0.29859,0.17118 -0.33352,0.13264 -0.0806,-0.0889 -0.24667,-1.76627 -0.24667,-2.49114 0,-0.42667 0.0361,-0.59523 0.16194,-0.75515 0.19148,-0.24343 0.2112,-0.60915 0.0405,-0.75083 -0.20734,-0.17207 -0.13544,-0.45378 0.23059,-0.90349 0.4139,-0.50852 0.59089,-0.83274 0.7535,-1.38032 0.11893,-0.40049 0.1192,-0.40071 0.41765,-0.35585 1.40174,0.21071 1.79579,0.23111 3.61521,0.18711 1.07056,-0.0259 2.3224,-0.0895 2.78186,-0.14132 0.45946,-0.0518 0.8574,-0.0722 0.88431,-0.0453 0.0269,0.0269 0.01,0.53403 -0.0382,1.12695 -0.11693,1.44648 -0.45976,2.48164 -1.34551,4.0628 -0.65349,1.16656 -1.91316,2.90545 -2.87412,3.96753 -1.34194,1.48315 -4.17625,4.3299 -4.24376,4.26239 -0.0429,-0.0429 -0.12764,-0.29071 -0.18838,-0.55076 z m -49.02047,-1.99437 c -2.64044,-1.44573 -4.55211,-2.59889 -6.69297,-4.03736 -6.20873,-4.1717 -12.226111,-9.5759 -17.431551,-15.65525 -7.40968,-8.653651 -13.52126,-18.86076 -18.54707,-30.975962 -2.18157,-5.25888 -4.22531,-11.446045 -6.92559,-20.966309 -1.83344,-6.4641 -2.66043,-10.663107 -2.84256,-14.432908 l -0.0538,-1.113338 h 1.02305 c 1.16558,0 1.0262,-0.104312 1.19013,0.89067 0.18348,1.113699 1.06236,4.020327 3.45209,11.416774 1.92086,5.945285 5.38904,14.850187 8.29377,21.295119 0.78993,1.752676 3.26551,6.75576 4.40714,8.906703 0.9011,1.69777 2.24365,4.006603 4.44009,7.635769 2.04363,3.376686 2.50928,4.100606 3.46624,5.388765 1.37508,1.850986 2.18741,2.759414 2.88598,3.227355 0.37963,0.254304 0.45364,0.276897 0.63554,0.194019 0.20148,-0.0918 0.20464,-0.106277 0.14811,-0.678915 -0.0672,-0.680852 -0.11717,-0.797647 -0.43924,-1.02698 -0.1311,-0.09335 -0.34945,-0.363885 -0.48522,-0.601181 -0.13576,-0.237295 -0.69018,-1.065252 -1.23203,-1.839904 -1.57655,-2.253883 -2.59201,-3.886237 -4.58958,-7.377741 -6.13998,-10.731898 -9.1097,-17.302258 -15.39935,-34.070398 -2.74018,-7.305286 -3.21512,-8.720235 -3.83215,-11.416775 -0.15795,-0.690269 -0.31038,-1.38604 -0.33873,-1.546158 l -0.0516,-0.291122 0.67467,-0.05251 c 0.37106,-0.02888 2.86086,-0.05255 5.53287,-0.05259 l 4.8582,-7.5e-5 0.50656,1.234383 c 0.27861,0.67891 0.55898,1.416565 0.62304,1.639233 0.29103,1.011588 0.48853,2.686527 0.81153,6.882452 0.43634,5.668319 0.53882,6.36958 1.67418,11.45726 3.12522,14.00447 7.08977,25.56231 12.47062,36.355544 2.39094,4.79588 4.377751,8.21728 7.358661,12.67204 1.32469,1.97965 2.02044,2.90439 2.95444,3.92682 0.3458,0.37854 1.50685,1.70761 2.58012,2.9535 2.58229,2.99761 3.47717,3.97267 5.46611,5.95586 2.30626,2.29959 4.31625,4.04325 6.20025,5.37872 0.42387,0.30046 0.77066,0.56389 0.77066,0.58541 0,0.0467 -1.70884,-0.84588 -3.56268,-1.86091 z m -58.925371,-3.0201 c 0.0179,-0.0179 0.11622,0.0566 0.21852,0.16546 0.12469,0.13273 0.16711,0.24605 0.12868,0.3438 -0.0477,0.12133 -0.0844,0.0935 -0.21852,-0.16546 -0.0887,-0.1712 -0.14657,-0.32591 -0.12868,-0.3438 z M 165.04138,116.5145 c -0.0302,-0.22787 -0.04,-0.42929 -0.0217,-0.4476 0.0992,-0.0992 0.78449,0.3083 0.78449,0.46645 0,0.12891 -0.358,0.39545 -0.53115,0.39545 -0.15146,0 -0.18458,-0.0592 -0.23168,-0.4143 z M 36.012219,114.4997 c -0.21627,-1.05797 -0.32846,-2.02755 -0.31832,-2.75086 0.008,-0.54191 0.0564,-0.33141 0.4403,1.90068 0.23747,1.38054 0.43041,2.58294 0.42876,2.67201 -0.005,0.25755 -0.37822,-0.97782 -0.55074,-1.82183 z m 36.72602,0.96666 c -0.26381,-0.0688 -0.40897,-0.1538 -0.43538,-0.25482 -0.0507,-0.19382 -0.43087,-0.39215 -0.64458,-0.33626 -0.1124,0.0294 -0.24511,-0.0358 -0.41889,-0.20563 -0.1399,-0.13676 -0.3428,-0.27085 -0.4509,-0.29798 -0.10809,-0.0271 -0.25594,-0.14 -0.32856,-0.25083 -0.0726,-0.11082 -0.26582,-0.26221 -0.42935,-0.33641 -0.28527,-0.12944 -1.12171,-0.95784 -1.56696,-1.55189 -0.26742,-0.3568 -0.39912,-0.81399 -0.29042,-1.00822 0.0669,-0.11949 0.10942,-0.0699 0.26181,0.30503 0.18202,0.44786 0.80027,1.38217 1.05386,1.59264 0.13714,0.11381 0.39994,0.22885 1.90427,0.83354 1.12147,0.45079 1.6397,0.46632 2.46832,0.074 0.94767,-0.44873 1.05037,-0.61394 1.17963,-1.89752 0.046,-0.45683 0.11643,-0.95211 0.1565,-1.10064 0.0433,-0.16045 0.0431,-0.34823 -3.9e-4,-0.46271 -0.17383,-0.45722 0.40343,-0.27549 0.64805,0.20402 0.17736,0.34765 0.35618,1.45803 0.28616,1.77685 -0.0279,0.12715 -0.16931,0.49955 -0.31417,0.82754 -0.59009,1.33606 -1.38742,2.22796 -1.90005,2.12544 -0.13246,-0.0265 -0.30821,-0.009 -0.39056,0.0382 -0.0823,0.0475 -0.20438,0.0734 -0.27118,0.0577 -0.0668,-0.0158 -0.29954,-0.0752 -0.51721,-0.13197 z m 100.701721,-1.74305 c -2.13349,-0.27932 -3.54395,-0.84242 -4.62474,-1.84636 -0.5927,-0.55056 -1.42016,-1.13972 -2.39905,-1.70815 -1.00389,-0.58295 -1.68434,-1.12476 -1.99084,-1.5852 -0.11264,-0.16922 -0.30393,-0.38564 -0.42509,-0.48095 -0.13497,-0.10616 -0.22029,-0.25181 -0.22029,-0.37605 0,-0.18396 -0.17474,-0.39966 -0.60357,-0.74504 -0.22228,-0.17902 -0.0692,-0.20987 0.27385,-0.0552 0.39826,0.17959 0.67974,0.11895 0.99011,-0.21331 0.4817,-0.51566 0.68344,-0.56754 2.38439,-0.61316 l 1.54683,-0.0415 0.8512,0.41057 c 1.33741,0.6451 1.53572,0.94375 2.12171,3.19533 0.29668,1.13994 0.54978,1.60345 1.20873,2.21353 0.61692,0.57117 0.884,0.69147 1.0862,0.48927 0.11847,-0.11847 0.10054,-0.24352 -0.21338,-1.4882 -0.18849,-0.74738 -0.36061,-1.41969 -0.38248,-1.49403 -0.0265,-0.0901 0.0221,-0.15403 0.1458,-0.19176 0.49697,-0.15156 0.57099,-0.44427 0.30664,-1.2126 -0.71845,-2.08823 -2.91042,-3.44526 -6.07627,-3.76178 -1.33733,-0.1337 -2.70868,0.0571 -3.59927,0.50089 -0.17814,0.0888 -0.4935,0.32592 -0.70082,0.52702 l -0.37694,0.36564 -0.13653,-0.63716 c -0.0751,-0.35044 -0.22727,-1.0522 -0.33817,-1.55946 -0.21822,-0.9982 -0.20596,-1.05766 0.21868,-1.06023 0.33976,-0.002 0.56456,-0.21555 0.56456,-0.53616 0,-0.25956 0.15201,-0.66147 0.33905,-0.89644 0.0563,-0.0707 0.14789,-0.0465 0.35487,0.094 0.23586,0.16005 0.75792,0.29143 1.57324,0.39589 0.0668,0.009 -0.24103,0.14124 -0.68407,0.29485 -1.02529,0.35549 -1.25921,0.54201 -1.25921,1.00409 0,0.44525 0.22921,0.66604 0.80473,0.77518 1.6643,0.31563 3.26834,-0.37985 3.68303,-1.59688 0.1689,-0.49571 0.16083,-0.77246 -0.0337,-1.15369 -0.29884,-0.58577 -0.9921,-0.963543 -2.17077,-1.182914 -0.38743,-0.07211 -0.81372,-0.156002 -0.94732,-0.186434 l -0.24291,-0.05533 0.39514,-0.191385 0.39514,-0.191385 0.60171,0.141855 c 0.65376,0.154123 0.94351,0.131158 1.53292,-0.121496 0.51467,-0.220613 0.63428,-0.201525 1.0315,0.164619 0.35291,0.325306 0.49059,0.568408 1.29169,2.28083 0.51255,1.09564 0.72892,1.42728 1.46943,2.25234 0.29841,0.33248 0.68446,0.84747 0.85789,1.14442 0.34236,0.58622 0.4168,0.63968 0.8907,0.63968 0.41665,0 0.50386,0.14269 0.82326,1.34693 0.25295,0.95368 0.25505,0.97805 0.2866,3.32909 0.0175,1.3026 0.0489,2.36837 0.0697,2.36837 0.0718,0 0.96157,-0.58486 1.1432,-0.75147 0.10003,-0.0918 0.20442,-0.14427 0.23199,-0.1167 0.0276,0.0276 0.0235,0.56456 -0.009,1.19332 l -0.0592,1.14319 -0.53716,-0.0509 c -0.29544,-0.028 -0.94512,-0.10431 -1.44375,-0.16959 z M 71.759319,112.39536 c -0.18299,-0.0886 -0.45254,-0.28469 -0.599,-0.4358 -0.22695,-0.23416 -0.25213,-0.2974 -0.17047,-0.42815 0.082,-0.13124 0.17368,-0.14902 0.63437,-0.12299 0.5084,0.0287 0.56308,0.0139 0.97639,-0.26421 0.24081,-0.16205 0.46404,-0.26586 0.49607,-0.23067 0.16324,0.17931 0.24957,0.67952 0.1627,0.94273 -0.21259,0.64415 -0.82695,0.86494 -1.50006,0.53909 z m 103.404321,-6.74639 c -0.41894,-1.01654 -0.86684,-1.88572 -1.96965,-3.82227 -1.04869,-1.841518 -1.80285,-3.222806 -1.80285,-3.302025 0,-0.06037 0.53356,0.122658 0.88037,0.302 1.32667,0.686048 2.74235,3.667595 3.12821,6.588285 0.0665,0.50329 0.12089,0.93749 0.12089,0.9649 0,0.10718 -0.0741,-0.0446 -0.35697,-0.73089 z m -72.21324,0.48398 -0.22347,-0.18296 0.20323,-0.59753 c 0.2427,-0.71356 0.25538,-0.98346 0.0522,-1.11038 -0.12202,-0.0762 -0.23063,-0.0575 -0.56464,0.0973 l -0.41356,0.1916 -0.15192,-0.21794 c -0.26506,-0.38027 -1.6551,-2.74911 -2.622351,-4.468874 -3.70556,-6.588455 -6.454,-12.622762 -8.53759,-18.744562 -1.16192,-3.41383 -1.85867,-5.868549 -3.58531,-12.631325 -2.5691,-10.062432 -2.74466,-11.052489 -2.81419,-15.870127 -0.0507,-3.514062 -0.0844,-3.438918 0.90513,-2.018297 0.39569,0.568075 0.78152,1.221015 0.85738,1.450979 0.20116,0.609743 0.4462,1.055862 0.68173,1.24113 0.11385,0.08955 0.36359,0.364487 0.55499,0.610976 0.19141,0.246489 0.7891,0.932724 1.32821,1.524968 0.78136,0.858363 1.05602,1.226066 1.35393,1.812581 0.64643,1.272669 1.82056,2.619965 5.39052,6.185528 2.10384,2.101249 2.99151,3.102781 2.99151,3.375237 0,0.362825 -0.59353,0.674899 -1.2836,0.674899 -0.15541,0 -0.34732,0.0586 -0.42646,0.130227 -0.10219,0.09248 -0.40914,0.150546 -1.05899,0.200329 -0.50329,0.03856 -1.04237,0.107482 -1.19794,0.153168 -0.39781,0.116821 -1.31586,0.103417 -2.89389,-0.04225 -2.03847,-0.188176 -2.53164,-0.06124 -2.53164,0.651626 0,0.453499 0.15486,0.578526 1.24098,1.001925 2.97767,1.160769 4.97994,1.482144 7.22039,1.15891 0.7578,-0.10933 1.28121,-0.231051 1.57891,-0.367185 0.41326,-0.18897 1.496301,-0.457645 1.844791,-0.457645 0.0832,0 0.23957,0.09431 0.34753,0.209587 0.10797,0.115273 0.38759,0.324186 0.62139,0.464252 0.2338,0.140066 0.42509,0.292611 0.42509,0.338988 0,0.113844 1.154,1.254334 1.26919,1.254334 0.0502,0 0.16376,0.122792 0.25231,0.272872 0.0886,0.150079 0.25961,0.341371 0.38015,0.425093 0.24009,0.166768 0.78736,0.693087 1.53958,1.480642 0.2672,0.279753 0.58168,0.55856 0.69884,0.61957 0.28803,0.149986 0.63717,0.577409 0.63717,0.780039 0,0.09078 0.13159,0.285584 0.29243,0.432903 l 0.29242,0.267854 -0.55558,0.408635 c -0.30557,0.224749 -0.76717,0.528149 -1.02578,0.674222 -0.80986,0.457439 -0.96935,0.580997 -1.14266,0.885226 -0.0927,0.162667 -0.77042,0.877854 -1.50614,1.589305 -0.73571,0.71145 -1.67714,1.679121 -2.09207,2.15038 -0.41493,0.471259 -0.82186,0.87824 -0.90429,0.904404 -0.0824,0.02616 -0.536551,-0.02705 -1.009151,-0.11825 -1.05329,-0.203266 -1.32863,-0.208024 -1.46226,-0.02527 -0.13226,0.180874 -0.0623,0.315373 0.51633,0.993034 0.24718,0.289467 0.49855,0.585344 0.5586,0.657503 0.14228,0.170969 -0.0178,0.557047 -0.23094,0.557047 -0.1649,0 -0.31374,0.22904 -0.31374,0.482806 0,0.243614 -0.3959,0.993357 -1.00785,1.908611 -0.29182,0.43645 -0.52825,0.814769 -0.52542,0.840708 0.0114,0.104203 0.74753,0.657363 0.93861,0.705322 0.61978,0.155554 1.42204,-0.524303 2.295031,-1.944873 0.28947,-0.471032 0.56603,-0.857 0.61459,-0.857707 0.12026,-0.0018 0.99991,0.449066 1.23809,0.634519 l 0.19279,0.150109 -0.56673,0.882321 c -0.73761,1.14836 -1.10242,1.883634 -1.43567,2.893605 -0.375421,1.137774 -0.402781,1.301572 -0.243941,1.46041 0.199431,0.199433 0.332981,0.162306 0.728891,-0.202631 l 0.36246,-0.334103 -0.35656,0.79968 c -0.19611,0.439825 -0.4711,1.052953 -0.6111,1.362508 -0.295741,0.653949 -0.313691,1.123619 -0.0443,1.158525 0.0891,0.01154 0.56239,-0.231493 1.05183,-0.540071 0.91919,-0.579523 1.0091,-0.594062 1.01166,-0.163609 0.004,0.705269 0.48896,1.451914 0.94263,1.451914 0.50531,0 0.86394,-0.3932 1.51394,-1.659885 0.15996,-0.311735 0.3254,-0.61807 0.36763,-0.680744 0.0607,-0.09004 0.22492,0.01591 0.78275,0.504909 0.85202,0.746911 1.39561,1.115526 2.16807,1.470201 2.05537,0.943722 4.48863,0.595423 6.5998,-0.9447 0.62395,-0.455173 1.67345,-1.526859 2.14223,-2.1875 0.74925,-1.0559 1.45378,-2.590704 1.68381,-3.668129 0.057,-0.267201 0.15199,-0.557691 0.211,-0.645534 0.12632,-0.188067 0.13839,-0.517104 0.0295,-0.803543 -0.0556,-0.146271 -0.0459,-0.26604 0.0341,-0.420196 0.0615,-0.118586 0.0935,-0.274842 0.0712,-0.347234 -0.0224,-0.07239 0.0365,-0.0337 0.13093,0.08599 0.0944,0.119687 0.34331,0.323815 0.55316,0.453619 0.20984,0.129804 0.56372,0.397903 0.78638,0.595776 0.66014,0.586628 0.83948,0.702154 1.29603,0.834877 0.2389,0.06945 0.60091,0.253396 0.80445,0.408766 0.20355,0.15537 0.68869,0.487256 1.07809,0.737526 0.3894,0.250269 0.89018,0.60782 1.11285,0.794556 0.22266,0.186737 0.73278,0.587933 1.13358,0.891547 1.11724,0.84633 1.65988,1.404536 1.65988,1.707493 0,0.142329 0.12219,0.45312 0.2834,0.720832 0.15587,0.258843 0.28339,0.480373 0.28339,0.492288 0,0.01192 -0.12394,0.04491 -0.27542,0.07333 -0.19121,0.03587 -0.36259,0.158046 -0.5605,0.399569 -0.24053,0.293535 -0.35818,0.364259 -0.75291,0.452594 -0.52767,0.118088 -0.7593,0.237649 -0.7593,0.391928 0,0.05786 0.0729,0.248047 0.16194,0.422632 0.0891,0.174586 0.16194,0.355317 0.16194,0.401625 0,0.0536 -0.35304,0.0842 -0.97164,0.0842 h -0.97164 v 0.347571 c 0,0.340233 -0.007,0.34955 -0.34412,0.441251 -0.18927,0.05152 -0.92711,0.426642 -1.63964,0.833598 -2.40849,1.375574 -3.83733,2.021235 -4.473,2.021235 -0.23883,0 -0.26788,-0.02137 -0.22269,-0.163764 0.10378,-0.326992 -0.0321,-0.601241 -0.41155,-0.830417 l -0.36561,-0.220834 -0.54578,0.553419 c -0.6083,0.616802 -1.19943,0.947176 -2.22362,1.242736 -0.51359,0.14822 -0.66034,0.16383 -0.78836,0.0839 -0.18229,-0.11385 -0.41741,-0.12761 -0.5279,-0.0309 -0.0423,0.037 -0.22948,0.11067 -0.41592,0.16365 -0.18645,0.053 -0.733,0.35714 -1.21456,0.6759 -0.92743,0.61391 -1.40311,0.82971 -1.65361,0.7502 -0.19141,-0.0607 -0.19138,-0.13104 2.3e-4,-0.50648 0.26477,-0.51876 0.59141,-0.71671 1.89117,-1.14607 l 0.78946,-0.26079 0.001,-0.458899 c 6.1e-4,-0.252395 0.0246,-0.546711 0.0533,-0.654035 l 0.0522,-0.195135 -0.89868,0.05458 c -1.50307,0.09129 -2.29087,0.43069 -3.1004,1.335729 -0.3901,0.43612 -0.88027,1.33095 -1.15981,2.11731 -0.087,0.24481 -0.22448,0.42887 -0.41889,0.56097 -0.34876,0.23696 -0.92957,0.89766 -1.75541,1.99685 -0.55984,0.74515 -1.0407,1.25231 -1.18029,1.24486 -0.03,-0.002 -0.15508,-0.0853 -0.278,-0.18587 z M 89.739719,66.369381 c 0.5353,-0.233068 0.81228,-0.8791 0.73525,-1.714907 -0.099,-1.074127 -0.54631,-1.608102 -1.34882,-1.610111 l -0.44591,-0.0011 -0.0405,0.545991 -0.0405,0.545991 -0.56679,-0.455562 c -0.57217,-0.459889 -1.00656,-0.757016 -1.10755,-0.757572 -0.34067,-0.0019 -0.42157,0.989415 -0.14177,1.737245 0.46617,1.245933 1.99353,2.129345 2.95656,1.710042 z m -2.52814,-7.293666 c 0.0256,-0.0668 0.11437,-0.121455 0.1972,-0.121455 0.29095,0 0.87321,-0.47085 1.10193,-0.89108 0.42006,-0.771789 0.32883,-1.917485 -0.19435,-2.440662 -0.19849,-0.198497 -0.29411,-0.23094 -0.68063,-0.23094 -0.57778,0 -0.65656,0.115959 -0.76095,1.120153 -0.0918,0.882583 -0.17847,1.02866 -0.42477,0.715545 -0.14266,-0.181363 -0.23364,-0.216297 -0.56333,-0.216297 -0.45963,0 -0.61768,0.122212 -0.69567,0.537916 -0.0727,0.387703 0.10357,0.740563 0.55471,1.110242 0.55872,0.457824 1.36239,0.686217 1.46586,0.416578 z m 0.78042,44.847485 c 0,-0.10759 0.022,-0.11313 0.12145,-0.0306 0.0668,0.0554 0.12146,0.11455 0.12146,0.13137 0,0.0168 -0.0547,0.0306 -0.12146,0.0306 -0.0668,0 -0.12145,-0.0591 -0.12145,-0.13137 z m 70.955031,-1.569 c -1.06705,-1.49539 -2.31506,-3.468817 -2.81304,-4.448131 -0.62179,-1.222821 -0.9553,-2.026035 -2.13709,-5.146821 -1.85697,-4.903776 -2.85461,-7.150378 -3.53355,-7.95725 -0.17725,-0.210653 -0.97581,-0.585088 -1.24781,-0.585088 -0.0521,0 -0.13809,0.09537 -0.1912,0.211937 -0.0837,0.183725 -0.0745,0.229771 0.0689,0.345916 0.10412,0.08431 0.16941,0.239224 0.17613,0.417856 0.0141,0.375428 0.33676,1.158161 1.71722,4.165888 1.11764,2.435102 1.64726,3.683371 1.58796,3.742674 -0.0718,0.07183 -1.88307,-2.937462 -6.44382,-10.706097 -4.91271,-8.368152 -6.41679,-10.838027 -8.53035,-14.007815 -3.95966,-5.938476 -7.12173,-9.813996 -11.5615,-14.170094 -3.18661,-3.126567 -6.04107,-5.524987 -10.77728,-9.055475 -2.26601,-1.689143 -3.33957,-2.416707 -5.45658,-3.697998 -0.88203,-0.533835 -1.58711,-0.973724 -1.56685,-0.97753 0.0803,-0.01509 15.37002,-0.186269 17.00005,-0.190329 2.03122,-0.0051 2.19178,0.03753 2.93063,0.777302 0.53563,0.536301 3.79345,4.208299 4.65764,5.24979 2.67851,3.228012 5.19577,6.912195 11.64564,17.044192 6.22999,9.786601 9.55064,14.425139 13.27397,18.542137 1.32297,1.462853 4.36585,4.465011 5.87208,5.793503 2.32207,2.048058 6.44783,5.46508 7.56321,6.263973 0.35223,0.252289 1.13562,0.736738 1.74085,1.076553 1.66954,0.937376 2.43644,1.501751 2.43644,1.79302 0,0.271958 -2.7739,-0.101758 -4.77724,-0.64362 -4.36066,-1.179467 -8.12419,-3.385858 -11.65035,-6.830092 -2.39968,-2.343915 -2.60676,-2.651011 -5.40354,-8.013379 -0.36969,-0.708825 -0.71412,-1.314698 -0.76539,-1.346385 -0.0513,-0.03169 -0.27997,-0.05294 -0.50823,-0.04723 -0.37161,0.0093 -0.42654,0.03446 -0.5253,0.240636 -0.15356,0.320602 -0.059,0.846874 0.23071,1.284284 0.13005,0.196351 0.34835,0.701071 0.48509,1.121601 0.13675,0.420529 0.84589,1.985223 1.57588,3.477095 0.72998,1.491873 1.47145,3.076862 1.64771,3.522197 0.92025,2.325194 1.78403,5.022135 2.64789,8.267371 0.29109,1.093519 0.74689,2.754039 1.01288,3.690049 0.266,0.93602 0.48364,1.75573 0.48364,1.8216 0,0.14458 -0.19469,-0.0863 -0.8654,-1.02624 z M 54.839319,100.07883 c 0.305,-0.882898 1.21723,-2.80318 1.49623,-3.149625 l 0.16301,-0.202425 -0.15725,0.40485 c -0.0865,0.222667 -0.39034,0.896743 -0.67524,1.497945 -0.28489,0.601203 -0.64228,1.373295 -0.7942,1.715765 -0.15191,0.34248 -0.28683,0.61206 -0.29981,0.59907 -0.013,-0.013 0.10728,-0.4025 0.26726,-0.86558 z M 161.23563,99.443452 c -0.28056,-1.206953 -0.37493,-2.843157 -0.18514,-3.210174 0.0703,-0.135863 0.1848,-0.294376 0.25454,-0.352253 0.0829,-0.06883 0.12679,-0.240013 0.12679,-0.494894 0,-0.550887 0.11246,-0.805057 0.35621,-0.805057 0.22189,0 2.37521,1.388017 2.44813,1.578053 0.0275,0.0716 -0.23495,0.497937 -0.65758,1.068298 -0.71007,0.958267 -1.37337,2.024774 -1.79118,2.880005 -0.13933,0.2852 -0.2486,0.42644 -0.2819,0.36436 -0.0299,-0.0558 -0.15135,-0.5185 -0.26987,-1.028338 z m -33.64928,-5.073466 c 0,-0.0175 0.0547,-0.03182 0.12145,-0.03182 0.0668,0 0.12146,0.03529 0.12146,0.07843 0,0.04313 -0.0547,0.05745 -0.12146,0.03182 -0.0668,-0.02563 -0.12145,-0.06093 -0.12145,-0.07843 z m 47.08953,-0.767747 c -0.7992,-0.41152 -1.49938,-0.878212 -2.04302,-1.36174 -0.59918,-0.532921 -0.85498,-0.718136 -1.72393,-1.248224 -0.97664,-0.595782 -1.3693,-0.900417 -2.46462,-1.912117 -0.48515,-0.448111 -0.92871,-0.814747 -0.98567,-0.814747 -0.057,0 -0.21184,-0.09109 -0.34415,-0.202425 -0.13231,-0.111334 -0.28085,-0.202425 -0.33009,-0.202425 -0.0492,0 -0.16116,-0.07163 -0.24871,-0.159185 -0.0875,-0.08755 -0.31528,-0.257439 -0.50606,-0.377527 -0.70741,-0.445275 -1.9166,-1.497071 -2.97841,-2.590705 -2.57509,-2.65229 -5.59786,-6.012651 -7.52942,-8.370327 -2.38016,-2.905241 -3.42347,-4.464471 -7.77462,-11.6192 -2.58729,-4.254356 -3.44652,-5.580953 -5.8737,-9.068643 -3.57745,-5.140545 -4.04793,-5.75168 -7.46756,-9.699954 -1.20491,-1.391173 -2.73733,-3.184613 -3.40539,-3.985423 -1.1833,-1.418431 -1.20908,-1.45734 -0.99866,-1.507167 0.1188,-0.02813 2.16483,-0.05546 4.54674,-0.06073 l 4.33073,-0.0096 0.42162,0.213319 c 1.18642,0.600274 3.22071,2.78759 7.03093,7.559804 3.08865,3.868466 5.94649,7.735748 8.15204,11.031489 0.77503,1.158132 0.79502,1.199391 0.6719,1.387288 -0.11559,0.176421 -0.11493,0.223535 0.007,0.529345 0.16024,0.40047 0.36501,0.53805 0.6076,0.408221 0.0929,-0.04971 0.17922,-0.07832 0.19186,-0.06358 0.0126,0.01474 0.19605,0.336513 0.40756,0.715048 0.21151,0.378535 0.52201,0.872723 0.68999,1.098196 0.47314,0.635046 0.8219,1.386764 0.84399,1.819117 0.0161,0.31567 0.0967,0.490054 0.47071,1.019163 0.24819,0.351082 0.56384,0.745348 0.70144,0.876147 0.14816,0.140833 0.25019,0.319543 0.25019,0.438222 0,0.228928 0.32157,0.817691 0.6605,1.209333 0.1266,0.146283 0.23017,0.342382 0.23017,0.435774 0,0.09339 0.13174,0.294049 0.29275,0.445903 0.30953,0.291923 0.85678,1.331914 0.95055,1.806434 0.0766,0.387584 0.42396,0.891995 0.61427,0.891995 0.35897,0 1.09974,1.24343 2.50877,4.21113 1.01036,2.128008 1.06468,2.218769 1.97973,3.30757 0.62423,0.74277 0.85343,0.930795 1.04502,0.857275 0.22445,-0.08613 0.22743,-0.285788 0.0159,-1.062278 -0.37781,-1.386817 -0.69039,-2.152162 -1.70764,-4.181139 -3.45593,-6.89303 -5.66779,-10.682111 -10.57283,-18.112014 -1.62966,-2.468533 -2.54505,-3.763107 -3.34497,-4.730541 -0.77877,-0.941874 -1.25503,-1.698449 -1.25503,-1.99373 0,-0.241486 -0.2524,-0.609083 -0.46769,-0.68116 -0.0768,-0.0257 -0.20243,-0.182711 -0.27925,-0.348909 -0.0768,-0.166198 -0.63756,-0.823595 -1.2461,-1.460882 -0.82806,-0.867166 -1.08323,-1.181923 -1.01417,-1.250987 0.34808,-0.348075 -0.30385,-1.123193 -0.78942,-0.938582 -0.18606,0.07074 -0.26424,0.01108 -0.99208,-0.757053 -0.51304,-0.541435 -0.79153,-0.898865 -0.79417,-1.019254 -0.006,-0.256993 -0.29246,-0.795781 -0.45735,-0.859052 -0.075,-0.02877 -0.20669,-0.02997 -0.29271,-0.0027 -0.22161,0.07034 -1.08425,-0.87978 -1.04824,-1.154551 0.0177,-0.13537 -0.0616,-0.270603 -0.27253,-0.46427 -0.52373,-0.480979 -1.1112,-1.10646 -1.07351,-1.14298 0.0126,-0.01223 3.86819,-0.04901 8.56794,-0.08174 9.8125,-0.06834 8.88709,-0.138932 9.71971,0.741465 1.19303,1.261498 4.88471,6.778417 7.20038,10.760389 1.02612,1.764496 1.7489,2.961724 3.22624,5.344022 2.87221,4.631619 3.67162,6.193257 4.5179,8.825734 l 0.31237,0.97164 -0.0134,2.833951 c -0.0874,18.461371 -0.12822,24.088558 -0.17459,24.088413 -0.0302,-9.4e-5 -0.34394,-0.149001 -0.69721,-0.330903 z m -65.26719,-1.001942 c -0.8905,-0.264443 -1.71635,-0.58636 -1.97323,-0.769164 -0.3553,-0.252851 -0.55683,-1.31725 -0.31263,-1.651211 0.0964,-0.131837 0.13335,-0.126882 0.58704,0.07872 0.38629,0.175063 0.74327,0.247439 1.76616,0.358082 1.62431,0.175697 1.8456,0.133335 2.41521,-0.46235 0.47988,-0.50184 1.92938,-2.393783 1.93954,-2.531557 0.0163,-0.220381 0.0361,-0.280266 0.21601,-0.652926 0.20483,-0.424192 0.22994,-0.963106 0.0602,-1.291397 -0.1034,-0.199946 -0.10386,-0.243577 -0.003,-0.326887 0.14898,-0.12364 0.36886,0.02243 0.68548,0.455381 0.27912,0.381654 0.41934,0.785954 0.65564,1.890323 0.2111,0.98661 0.18641,1.157141 -0.32219,2.225561 -0.33631,0.706501 -1.39122,2.08365 -1.78902,2.33552 -0.13454,0.08518 -0.56255,0.260977 -0.95114,0.390656 -0.63064,0.210456 -0.78914,0.23212 -1.47574,0.201698 -0.51296,-0.02273 -1.01194,-0.106162 -1.49783,-0.250449 z m 28.94667,-2.922689 c 0,-0.06943 0.037,-0.103347 0.0823,-0.07538 0.0453,0.02797 0.0613,0.08478 0.0357,0.126234 -0.0694,0.112309 -0.118,0.09137 -0.118,-0.05086 z m -1.54493,-1.865013 c -1.22513,-1.480593 -1.69387,-2.125124 -1.69387,-2.329142 0,-0.100201 -0.16188,-0.35851 -0.36453,-0.581694 -0.22449,-0.247224 -0.34641,-0.448115 -0.31736,-0.522909 0.0259,-0.0668 0.0934,-0.38441 0.14997,-0.705799 0.10802,-0.614123 0.2647,-0.922005 0.37686,-0.740526 0.0339,0.05487 0.0863,0.311727 0.11633,0.570784 0.0459,0.395613 0.0923,0.497792 0.28961,0.638305 0.12922,0.09201 0.23494,0.207711 0.23494,0.257112 0,0.0494 0.24998,0.493267 0.55552,0.986369 0.80254,1.295219 0.94399,1.556031 1.21088,2.232556 0.29226,0.740863 0.42722,1.214551 0.34604,1.214551 -0.0334,0 -0.44036,-0.458824 -0.90439,-1.019607 z m -27.72716,0.613372 c -0.15162,-0.146952 -0.25887,-0.294371 -0.23833,-0.327598 0.0205,-0.03323 0.23286,-0.170761 0.47184,-0.305631 0.23897,-0.134871 0.91109,-0.703114 1.4936,-1.262763 0.5825,-0.55965 1.09654,-1.017545 1.14232,-1.017545 0.15002,0 0.33031,0.469991 0.33031,0.861085 0,0.536668 -0.24838,0.994852 -0.83243,1.535581 -0.96102,0.889734 -1.7948,1.071778 -2.36731,0.516871 z m -6.57172,-4.439796 c -0.16773,-0.05004 -0.15126,-0.09089 0.33133,-0.821872 0.846,-1.281455 1.7115,-2.10522 2.21186,-2.10522 0.18963,0 0.99358,0.367048 0.99358,0.453627 0,0.02533 -0.11842,0.285946 -0.26316,0.579153 -0.43289,0.876963 -1.16264,1.583005 -1.9135,1.851325 -0.30643,0.109501 -1.05757,0.133242 -1.36011,0.04299 z m 28.68541,-2.886607 c -0.0729,-0.111334 -0.1623,-0.202426 -0.19856,-0.202426 -0.10701,0 -0.74004,-0.632438 -0.74004,-0.739353 0,-0.146197 -0.2495,-0.394158 -0.39716,-0.39471 -0.11196,-4.19e-4 -2.23938,-2.037149 -3.09971,-2.967567 l -0.29854,-0.322871 0.26938,-0.09741 c 0.14817,-0.05358 0.28712,-0.165199 0.30879,-0.248049 0.039,-0.149133 0.12128,-0.169506 1.80026,-0.445745 0.1336,-0.02198 0.43416,-0.08525 0.66791,-0.140596 l 0.42501,-0.100632 0.29058,0.279125 c 0.40032,0.38454 0.55993,0.726178 1.01813,2.179349 0.47194,1.49672 0.55027,2.039111 0.36232,2.508844 -0.0728,0.182025 -0.13242,0.457745 -0.13242,0.612711 0,0.332497 -0.0926,0.359125 -0.27595,0.07933 z m -23.88947,-1.990467 c 0.0298,-0.04822 0.20968,-0.154324 0.39973,-0.235789 0.19005,-0.08146 0.57263,-0.315286 0.85017,-0.519604 0.37927,-0.2792 0.5771,-0.371487 0.79632,-0.371487 h 0.29169 l -0.39207,0.398055 c -0.34811,0.353421 -0.42188,0.393218 -0.65791,0.354916 -0.2544,-0.04128 -0.34271,-0.01131 -0.96819,0.328581 -0.28209,0.153292 -0.39648,0.16951 -0.31974,0.04533 z m 12.8701,-8.322113 c -0.17624,-0.04178 -0.25049,-0.112317 -0.27054,-0.257008 -0.0387,-0.279627 -0.23373,-0.47135 -0.53734,-0.528307 -0.20142,-0.03779 -0.63018,-0.422355 -1.92009,-1.722196 -2.01,-2.025491 -4.24029,-4.351905 -4.43793,-4.629208 -0.11679,-0.163859 0.15243,-0.05517 1.4055,0.567422 0.85248,0.423556 1.67748,0.866001 1.83335,0.983212 0.15587,0.11721 0.51962,0.331251 0.80835,0.475647 2.10816,1.054331 4.86172,2.677189 5.32065,3.135815 0.18939,0.189268 0.3936,0.344123 0.45381,0.344123 0.0602,0 0.19139,0.08719 0.2915,0.193753 l 0.18202,0.193753 -0.26912,0.203633 c -0.14802,0.111999 -0.41487,0.242466 -0.593,0.289928 -0.17814,0.04746 -0.63359,0.268018 -1.01213,0.490124 -0.44581,0.261583 -0.74528,0.388518 -0.85018,0.36036 -0.0891,-0.02391 -0.27125,-0.06938 -0.40485,-0.101051 z m 51.13,-16.006425 c -0.1393,-0.20246 -0.53778,-0.90463 -0.88552,-1.560378 -0.34774,-0.655748 -0.88632,-1.610522 -1.19684,-2.121719 -1.06334,-1.750551 -1.32531,-2.443368 -1.44092,-3.810767 l -0.0576,-0.681365 0.19421,0.178814 0.1942,0.178813 0.58761,-0.324477 c 1.0759,-0.594115 1.68096,-1.348271 2.84922,-3.55129 0.79193,-1.493378 1.01377,-1.827117 1.49761,-2.253007 0.35719,-0.314409 0.84339,-0.50403 1.29236,-0.50403 0.28923,0 0.25813,0.09766 -0.0908,0.285224 -0.51425,0.276415 -0.65715,0.429449 -0.71373,0.764328 -0.0362,0.214461 -0.10543,0.336475 -0.20958,0.369528 -0.25627,0.08134 -0.33997,0.326346 -0.20238,0.592415 0.25588,0.494831 0.85774,0.638734 0.98383,0.235235 0.0527,-0.168711 0.54104,-0.650622 0.83453,-0.823578 0.29883,-0.176105 -0.46479,0.64734 -1.23862,1.335645 -0.46239,0.41129 -0.91948,0.887947 -1.01575,1.059237 -0.0963,0.171291 -0.21905,0.311437 -0.27285,0.311437 -0.0538,0 -0.40564,0.309425 -0.78186,0.687611 l -0.68404,0.687611 0.3913,0.397275 0.3913,0.397275 -0.63663,0.643524 c -1.02231,1.033386 -1.40584,1.463899 -1.40584,1.578059 0,0.05878 0.1093,0.226555 0.24291,0.372829 0.28992,0.317423 0.28986,0.316992 0.0676,0.553529 -0.173,0.184146 -0.17326,0.188767 -0.0202,0.358262 0.0853,0.09444 0.29138,0.279853 0.45805,0.412029 l 0.30304,0.240321 1.35685,-1.071012 c 0.74626,-0.589056 1.41059,-1.111126 1.47628,-1.160154 0.0657,-0.04903 -0.25924,0.275223 -0.72208,0.720558 -0.46284,0.445335 -1.07129,1.119134 -1.3521,1.49733 l -0.51058,0.68763 0.36223,0.367762 c 0.19923,0.202269 0.36224,0.395891 0.36224,0.430272 0,0.03438 -0.11475,0.167315 -0.25499,0.295408 -0.24076,0.219897 -0.2492,0.246879 -0.15125,0.483357 0.11112,0.268271 0.47129,0.570138 0.68025,0.570138 0.0702,0 0.31808,-0.144209 0.55096,-0.320463 0.23287,-0.176255 0.43566,-0.308202 0.45065,-0.293216 0.0322,0.0322 -1.34045,2.152109 -1.3935,2.152109 -0.0199,0 -0.15025,-0.165649 -0.28955,-0.368109 z m 1.87098,-9.371917 c 0.48553,-0.473629 1.19855,-1.047991 1.09735,-0.883965 -0.0667,0.108051 -1.44111,1.307114 -1.5022,1.31052 -0.0189,0.0011 0.16326,-0.190895 0.40485,-0.426555 z m -5.80541,-1.936276 c -0.15049,-1.170998 -0.29698,-2.338598 -0.32554,-2.594666 l -0.0519,-0.465577 h 2.15724 c 1.18648,0 2.15724,0.01943 2.15724,0.04318 0,0.108883 -0.43197,0.873264 -0.8692,1.538093 -0.62803,0.954926 -2.70057,3.701687 -2.75329,3.648965 -0.0225,-0.0225 -0.16403,-0.998993 -0.31452,-2.169991 z"
       id="path7" /></g></svg>
